<svg width="122" height="44" viewBox="0 0 122 44" fill="none" xmlns="http://www.w3.org/2000/svg">
<path d="M-25.0008 34.9463C-25.0008 38.2828 -24.1008 41.3413 -20.5521 41.3413H114.194C118.399 41.3413 119.199 38.0604 119.199 34.9463" stroke="black" stroke-width="3.89262"/>
<path d="M-10.7158 6.9375V30.9463H-14.873V6.9375H-10.7158ZM-1.71623 31.3008C-2.8549 31.3008 -3.88078 31.0967 -4.79387 30.6885C-5.69621 30.2803 -6.41057 29.6787 -6.93693 28.8838C-7.4633 28.0889 -7.72648 27.106 -7.72648 25.9351C-7.72648 24.9253 -7.5385 24.0928 -7.16252 23.4375C-6.78654 22.7822 -6.27629 22.2612 -5.63176 21.8745C-4.97648 21.4771 -4.24064 21.1763 -3.42424 20.9722C-2.60783 20.7681 -1.76457 20.623 -0.894453 20.5371C0.158281 20.4189 1.00691 20.3169 1.65145 20.231C2.29598 20.145 2.76326 20.0054 3.0533 19.812C3.35408 19.6187 3.50447 19.3232 3.50447 18.9258V18.8291C3.50447 18.2598 3.38094 17.7764 3.13387 17.3789C2.89754 16.9707 2.54842 16.6592 2.0865 16.4443C1.62459 16.2295 1.04988 16.1221 0.362383 16.1221C-0.314375 16.1221 -0.910566 16.2295 -1.42619 16.4443C-1.93107 16.6484 -2.34465 16.9277 -2.66691 17.2822C-2.97844 17.626 -3.19865 18.0073 -3.32756 18.4263L-7.21086 17.814C-6.92082 16.729 -6.42131 15.8267 -5.71232 15.1069C-4.9926 14.3765 -4.11711 13.8286 -3.08586 13.4634C-2.04387 13.0874 -0.889082 12.8994 0.378496 12.8994C1.28084 12.8994 2.1617 13.0068 3.02107 13.2217C3.89119 13.4365 4.67537 13.7856 5.37361 14.269C6.07186 14.7417 6.62508 15.3701 7.03328 16.1543C7.45223 16.9277 7.6617 17.8784 7.6617 19.0063V30.9463H3.64949V28.481H3.50447C3.24666 28.9858 2.8868 29.4531 2.42488 29.8828C1.96297 30.3125 1.38826 30.6562 0.700762 30.9141C0.024004 31.1719 -0.78166 31.3008 -1.71623 31.3008ZM-0.652754 28.207C0.206621 28.207 0.947832 28.0405 1.57088 27.7075C2.20467 27.3638 2.68807 26.9126 3.02107 26.354C3.36482 25.7954 3.5367 25.1831 3.5367 24.5171V22.4546C3.39705 22.562 3.17146 22.6641 2.85994 22.7607C2.55916 22.8467 2.21004 22.9272 1.81258 23.0024C1.42586 23.0669 1.03377 23.1313 0.636309 23.1958C0.24959 23.2495 -0.0941601 23.2925 -0.394941 23.3247C-1.00725 23.4106 -1.56584 23.5557 -2.07072 23.7598C-2.56486 23.9531 -2.95695 24.2217 -3.24699 24.5654C-3.53703 24.8984 -3.68205 25.3389 -3.68205 25.8867C-3.68205 26.3916 -3.55314 26.8159 -3.29533 27.1597C-3.03752 27.5034 -2.68303 27.7666 -2.23186 27.9492C-1.78068 28.1211 -1.25432 28.207 -0.652754 28.207ZM16.0812 30.9463L9.44254 13.1572H13.8898L17.1447 22.7446C17.5099 23.8403 17.8322 24.9468 18.1115 26.064C18.3908 27.1812 18.6754 28.3037 18.9655 29.4316H17.9504C18.2404 28.3037 18.5197 27.1865 18.7882 26.0801C19.0675 24.9629 19.3844 23.8511 19.7389 22.7446L22.9777 13.1572H27.3766L20.7218 30.9463H16.0812ZM34.4587 31.3008C33.3201 31.3008 32.2942 31.0967 31.3811 30.6885C30.4787 30.2803 29.7644 29.6787 29.238 28.8838C28.7117 28.0889 28.4485 27.106 28.4485 25.9351C28.4485 24.9253 28.6365 24.0928 29.0124 23.4375C29.3884 22.7822 29.8987 22.2612 30.5432 21.8745C31.1985 21.4771 31.9343 21.1763 32.7507 20.9722C33.5671 20.7681 34.4104 20.623 35.2805 20.5371C36.3332 20.4189 37.1819 20.3169 37.8264 20.231C38.4709 20.145 38.9382 20.0054 39.2283 19.812C39.529 19.6187 39.6794 19.3232 39.6794 18.9258V18.8291C39.6794 18.2598 39.5559 17.7764 39.3088 17.3789C39.0725 16.9707 38.7234 16.6592 38.2615 16.4443C37.7995 16.2295 37.2248 16.1221 36.5373 16.1221C35.8606 16.1221 35.2644 16.2295 34.7488 16.4443C34.2439 16.6484 33.8303 16.9277 33.508 17.2822C33.1965 17.626 32.9763 18.0073 32.8474 18.4263L28.9641 17.814C29.2541 16.729 29.7537 15.8267 30.4626 15.1069C31.1824 14.3765 32.0578 13.8286 33.0891 13.4634C34.1311 13.0874 35.2859 12.8994 36.5535 12.8994C37.4558 12.8994 38.3367 13.0068 39.196 13.2217C40.0662 13.4365 40.8503 13.7856 41.5486 14.269C42.2468 14.7417 42.8 15.3701 43.2082 16.1543C43.6272 16.9277 43.8367 17.8784 43.8367 19.0063V30.9463H39.8245V28.481H39.6794C39.4216 28.9858 39.0618 29.4531 38.5998 29.8828C38.1379 30.3125 37.5632 30.6562 36.8757 30.9141C36.199 31.1719 35.3933 31.3008 34.4587 31.3008ZM35.5222 28.207C36.3816 28.207 37.1228 28.0405 37.7458 27.7075C38.3796 27.3638 38.863 26.9126 39.196 26.354C39.5398 25.7954 39.7117 25.1831 39.7117 24.5171V22.4546C39.572 22.562 39.3464 22.6641 39.0349 22.7607C38.7341 22.8467 38.385 22.9272 37.9875 23.0024C37.6008 23.0669 37.2087 23.1313 36.8113 23.1958C36.4245 23.2495 36.0808 23.2925 35.78 23.3247C35.1677 23.4106 34.6091 23.5557 34.1042 23.7598C33.6101 23.9531 33.218 24.2217 32.928 24.5654C32.6379 24.8984 32.4929 25.3389 32.4929 25.8867C32.4929 26.3916 32.6218 26.8159 32.8796 27.1597C33.1374 27.5034 33.4919 27.7666 33.9431 27.9492C34.3943 28.1211 34.9206 28.207 35.5222 28.207ZM56.2523 13.1572V16.4282H45.9559V13.1572H56.2523ZM48.6146 8.79053H52.7718V25.9189C52.7718 26.5527 52.9061 27.0146 53.1746 27.3047C53.4539 27.5947 53.9158 27.7397 54.5604 27.7397C54.7645 27.7397 55.0277 27.7236 55.3499 27.6914C55.6722 27.6592 55.93 27.627 56.1234 27.5947L56.639 30.8335C56.22 30.9409 55.7742 31.0161 55.3016 31.0591C54.8289 31.1128 54.367 31.1396 53.9158 31.1396C52.1863 31.1396 50.8704 30.7261 49.9681 29.8989C49.0657 29.0718 48.6146 27.8794 48.6146 26.3218V8.79053ZM66.5248 31.3169C64.7953 31.3169 63.286 30.9355 61.997 30.1729C60.7187 29.3994 59.725 28.3252 59.016 26.9502C58.3178 25.5645 57.9687 23.9531 57.9687 22.1162C57.9687 20.2793 58.3178 18.668 59.016 17.2822C59.725 15.8965 60.7187 14.8223 61.997 14.0596C63.286 13.2861 64.7953 12.8994 66.5248 12.8994C68.265 12.8994 69.7743 13.2861 71.0526 14.0596C72.3417 14.8223 73.3354 15.8965 74.0336 17.2822C74.7426 18.668 75.0971 20.2793 75.0971 22.1162C75.0971 23.9531 74.7426 25.5645 74.0336 26.9502C73.3354 28.3252 72.3417 29.3994 71.0526 30.1729C69.7743 30.9355 68.265 31.3169 66.5248 31.3169ZM66.5248 27.917C67.4809 27.917 68.2812 27.6646 68.9257 27.1597C69.5702 26.644 70.0536 25.9512 70.3759 25.0811C70.7089 24.2002 70.8754 23.2119 70.8754 22.1162C70.8754 20.999 70.7089 20.0054 70.3759 19.1353C70.0536 18.2544 69.5702 17.5615 68.9257 17.0566C68.2812 16.5518 67.4809 16.2993 66.5248 16.2993C65.5795 16.2993 64.7846 16.5518 64.14 17.0566C63.4955 17.5615 63.0121 18.2544 62.6898 19.1353C62.3676 20.0054 62.2064 20.999 62.2064 22.1162C62.2064 23.2119 62.3676 24.2002 62.6898 25.0811C63.0121 25.9512 63.4955 26.644 64.14 27.1597C64.7846 27.6646 65.5795 27.917 66.5248 27.917ZM78.2475 30.9463V13.1572H82.2759V16.1221H82.437C82.7593 15.0908 83.3071 14.3013 84.0805 13.7534C84.854 13.2056 85.7671 12.9316 86.8198 12.9316C87.0669 12.9316 87.3247 12.9424 87.5932 12.9639C87.8725 12.9746 88.1089 12.9961 88.3022 13.0283V16.8311C88.1303 16.7881 87.8511 16.7451 87.4643 16.7021C87.0884 16.6592 86.7124 16.6377 86.3364 16.6377C85.5952 16.6377 84.9238 16.7988 84.3222 17.1211C83.7314 17.4434 83.2641 17.8999 82.9204 18.4907C82.5766 19.0708 82.4048 19.7637 82.4048 20.5693V30.9463H78.2475ZM91.1627 37.4399L91.92 34.1689L92.7579 34.2656C93.3272 34.3945 93.8321 34.416 94.2725 34.3301C94.713 34.2441 95.0836 34.0293 95.3843 33.6855C95.6851 33.3525 95.9107 32.8691 96.0611 32.2354L96.3995 30.9785L89.648 13.1572H94.0953L97.3502 22.7446C97.7261 23.8511 98.0377 24.9575 98.2847 26.064C98.5425 27.1704 98.8218 28.293 99.1226 29.4316H98.0108C98.3008 28.293 98.5909 27.1704 98.8809 26.064C99.171 24.9468 99.504 23.8403 99.8799 22.7446L103.215 13.1572H107.614L99.9122 33.3633C99.5469 34.3086 99.0958 35.1089 98.5587 35.7642C98.0215 36.4302 97.3716 36.9297 96.6089 37.2627C95.857 37.6064 94.9654 37.7783 93.9341 37.7783C93.3755 37.7783 92.8492 37.7461 92.355 37.6816C91.8716 37.6172 91.4742 37.5366 91.1627 37.4399Z" fill="black"/>
<path d="M117.2 8.34131C117.2 5.00478 116.65 1.94629 112.751 1.94629H-19.9952C-23.35 1.94629 -25 5.22721 -25 8.34131" stroke="black" stroke-width="3.89262"/>
</svg>
