<svg width="187" height="43" viewBox="0 0 187 43" fill="none" xmlns="http://www.w3.org/2000/svg">
<path d="M1.94726 34.9463C1.94726 38.0767 2.84629 40.9463 6.3911 40.9463H179.948C184.148 40.9463 184.947 37.868 184.947 34.9463" stroke="black" stroke-width="3.89262"/>
<path d="M16.2314 7.9375V31.9463H12.0742V7.9375H16.2314ZM28.0186 32.3169C26.2354 32.3169 24.6939 31.9355 23.3941 31.1729C22.1051 30.4102 21.1114 29.3413 20.4132 27.9663C19.7149 26.5913 19.3658 24.98 19.3658 23.1323C19.3658 21.3169 19.7096 19.7163 20.3971 18.3306C21.0953 16.9341 22.0728 15.8491 23.3297 15.0757C24.5972 14.2915 26.0743 13.8994 27.7608 13.8994C28.8888 13.8994 29.9469 14.0874 30.9351 14.4634C31.9342 14.8286 32.8096 15.3872 33.5616 16.1392C34.3243 16.8804 34.9205 17.8203 35.3502 18.959C35.7799 20.0869 35.9947 21.4136 35.9947 22.939V24.1958H21.2672V21.3599H33.9161L31.9825 22.1816C31.9825 21.1719 31.8214 20.291 31.4991 19.5391C31.1768 18.7871 30.7042 18.207 30.0811 17.7988C29.4688 17.3799 28.7061 17.1704 27.793 17.1704C26.8907 17.1704 26.1173 17.3799 25.4727 17.7988C24.8282 18.2178 24.3341 18.7925 23.9903 19.5229C23.6573 20.2427 23.4908 21.0537 23.4908 21.9561V23.8735C23.4908 24.98 23.6788 25.9199 24.0548 26.6934C24.4307 27.4668 24.9625 28.0522 25.65 28.4497C26.3482 28.8472 27.1593 29.0459 28.0831 29.0459C28.7061 29.0459 29.2701 28.9546 29.775 28.772C30.2799 28.5894 30.7096 28.3262 31.064 27.9824C31.4293 27.6279 31.7032 27.1982 31.8858 26.6934L35.7208 27.3057C35.4522 28.3047 34.9635 29.1802 34.2545 29.9321C33.5562 30.6841 32.6754 31.2695 31.6119 31.6885C30.5484 32.1074 29.3507 32.3169 28.0186 32.3169ZM46.8151 32.3169C45.0856 32.3169 43.5817 31.9355 42.3034 31.1729C41.0251 30.3994 40.0314 29.3198 39.3224 27.9341C38.6242 26.5483 38.2751 24.9424 38.2751 23.1162C38.2751 21.2793 38.6242 19.668 39.3224 18.2822C40.0314 16.8965 41.0251 15.8223 42.3034 15.0596C43.5817 14.2861 45.0856 13.8994 46.8151 13.8994C47.8356 13.8994 48.7809 14.0337 49.651 14.3022C50.5212 14.5708 51.2946 14.9629 51.9713 15.4785C52.6481 15.9834 53.2067 16.5957 53.6471 17.3154C54.0983 18.0352 54.4098 18.8408 54.5817 19.7324L50.6339 20.3608C50.5373 19.8989 50.3761 19.48 50.1505 19.104C49.9357 18.728 49.6671 18.4058 49.3449 18.1372C49.0334 17.8687 48.6681 17.6592 48.2492 17.5088C47.8302 17.3584 47.3629 17.2832 46.8473 17.2832C45.8913 17.2832 45.091 17.5356 44.4464 18.0405C43.8127 18.5454 43.3293 19.2383 42.9963 20.1191C42.674 20.9893 42.5129 21.9883 42.5129 23.1162C42.5129 24.2227 42.674 25.2163 42.9963 26.0972C43.3293 26.9673 43.8127 27.6548 44.4464 28.1597C45.091 28.6646 45.8913 28.917 46.8473 28.917C47.3629 28.917 47.8302 28.8418 48.2492 28.6914C48.6789 28.541 49.0548 28.3315 49.3771 28.063C49.6994 27.7837 49.9679 27.4453 50.1828 27.0479C50.4084 26.6504 50.5695 26.21 50.6662 25.7266L54.6139 26.3711C54.4528 27.2842 54.1466 28.106 53.6955 28.8364C53.2443 29.5562 52.6803 30.1792 52.0036 30.7056C51.3268 31.2212 50.548 31.6187 49.6671 31.8979C48.797 32.1772 47.8463 32.3169 46.8151 32.3169ZM66.1594 14.1572V17.4282H55.863V14.1572H66.1594ZM58.5217 9.79053H62.6789V26.9189C62.6789 27.5527 62.8132 28.0146 63.0818 28.3047C63.3611 28.5947 63.823 28.7397 64.4675 28.7397C64.6716 28.7397 64.9348 28.7236 65.2571 28.6914C65.5793 28.6592 65.8371 28.627 66.0305 28.5947L66.5461 31.8335C66.1272 31.9409 65.6814 32.0161 65.2087 32.0591C64.7361 32.1128 64.2742 32.1396 63.823 32.1396C62.0935 32.1396 60.7776 31.7261 59.8752 30.8989C58.9729 30.0718 58.5217 28.8794 58.5217 27.3218V9.79053ZM75.1429 32.2041C73.9183 32.2041 72.8441 31.9409 71.9202 31.4146C70.9964 30.8882 70.2767 30.1201 69.7611 29.1104C69.2454 28.1006 68.9876 26.8706 68.9876 25.4204V14.1572H73.1448V24.7759C73.1448 26.0005 73.4564 26.9512 74.0794 27.6279C74.7025 28.3047 75.5618 28.6431 76.6575 28.6431C77.3988 28.6431 78.054 28.4873 78.6234 28.1758C79.2034 27.8535 79.6546 27.3809 79.9769 26.7578C80.3099 26.1348 80.4764 25.3828 80.4764 24.502V14.1572H84.6497V31.9463H80.6536L80.6214 27.5151H81.0404C80.5355 29.0728 79.7889 30.2437 78.8006 31.0278C77.8123 31.812 76.5931 32.2041 75.1429 32.2041ZM88.5736 31.9463V14.1572H92.602V17.1221H92.7631C93.0854 16.0908 93.6332 15.3013 94.4066 14.7534C95.1801 14.2056 96.0932 13.9316 97.1459 13.9316C97.393 13.9316 97.6508 13.9424 97.9193 13.9639C98.1986 13.9746 98.435 13.9961 98.6283 14.0283V17.8311C98.4564 17.7881 98.1771 17.7451 97.7904 17.7021C97.4145 17.6592 97.0385 17.6377 96.6625 17.6377C95.9213 17.6377 95.2499 17.7988 94.6483 18.1211C94.0575 18.4434 93.5902 18.8999 93.2465 19.4907C92.9027 20.0708 92.7309 20.7637 92.7309 21.5693V31.9463H88.5736ZM108.289 32.3169C106.505 32.3169 104.964 31.9355 103.664 31.1729C102.375 30.4102 101.381 29.3413 100.683 27.9663C99.9848 26.5913 99.6357 24.98 99.6357 23.1323C99.6357 21.3169 99.9795 19.7163 100.667 18.3306C101.365 16.9341 102.343 15.8491 103.6 15.0757C104.867 14.2915 106.344 13.8994 108.031 13.8994C109.159 13.8994 110.217 14.0874 111.205 14.4634C112.204 14.8286 113.08 15.3872 113.832 16.1392C114.594 16.8804 115.19 17.8203 115.62 18.959C116.05 20.0869 116.265 21.4136 116.265 22.939V24.1958H101.537V21.3599H114.186L112.252 22.1816C112.252 21.1719 112.091 20.291 111.769 19.5391C111.447 18.7871 110.974 18.207 110.351 17.7988C109.739 17.3799 108.976 17.1704 108.063 17.1704C107.161 17.1704 106.387 17.3799 105.743 17.7988C105.098 18.2178 104.604 18.7925 104.26 19.5229C103.927 20.2427 103.761 21.0537 103.761 21.9561V23.8735C103.761 24.98 103.949 25.9199 104.325 26.6934C104.701 27.4668 105.232 28.0522 105.92 28.4497C106.618 28.8472 107.429 29.0459 108.353 29.0459C108.976 29.0459 109.54 28.9546 110.045 28.772C110.55 28.5894 110.979 28.3262 111.334 27.9824C111.699 27.6279 111.973 27.1982 112.156 26.6934L115.991 27.3057C115.722 28.3047 115.233 29.1802 114.524 29.9321C113.826 30.6841 112.945 31.2695 111.882 31.6885C110.818 32.1074 109.621 32.3169 108.289 32.3169ZM131.283 21.6016V31.9463H127.126V7.9375H131.251V18.5723H130.719C131.224 17.0254 131.965 15.8599 132.943 15.0757C133.931 14.2915 135.161 13.8994 136.632 13.8994C137.857 13.8994 138.931 14.1626 139.855 14.689C140.779 15.2153 141.499 15.9834 142.014 16.9932C142.53 18.0029 142.788 19.2329 142.788 20.6831V31.9463H138.614V21.3276C138.614 20.103 138.303 19.1523 137.68 18.4756C137.068 17.7988 136.208 17.4604 135.102 17.4604C134.371 17.4604 133.716 17.6216 133.136 17.9438C132.567 18.2554 132.115 18.7173 131.782 19.3296C131.449 19.9419 131.283 20.6992 131.283 21.6016ZM151.787 32.3008C150.649 32.3008 149.623 32.0967 148.71 31.6885C147.807 31.2803 147.093 30.6787 146.567 29.8838C146.04 29.0889 145.777 28.106 145.777 26.9351C145.777 25.9253 145.965 25.0928 146.341 24.4375C146.717 23.7822 147.227 23.2612 147.872 22.8745C148.527 22.4771 149.263 22.1763 150.079 21.9722C150.896 21.7681 151.739 21.623 152.609 21.5371C153.662 21.4189 154.51 21.3169 155.155 21.231C155.8 21.145 156.267 21.0054 156.557 20.812C156.858 20.6187 157.008 20.3232 157.008 19.9258V19.8291C157.008 19.2598 156.884 18.7764 156.637 18.3789C156.401 17.9707 156.052 17.6592 155.59 17.4443C155.128 17.2295 154.553 17.1221 153.866 17.1221C153.189 17.1221 152.593 17.2295 152.077 17.4443C151.572 17.6484 151.159 17.9277 150.837 18.2822C150.525 18.626 150.305 19.0073 150.176 19.4263L146.293 18.814C146.583 17.729 147.082 16.8267 147.791 16.1069C148.511 15.3765 149.386 14.8286 150.418 14.4634C151.46 14.0874 152.614 13.8994 153.882 13.8994C154.784 13.8994 155.665 14.0068 156.525 14.2217C157.395 14.4365 158.179 14.7856 158.877 15.269C159.575 15.7417 160.129 16.3701 160.537 17.1543C160.956 17.9277 161.165 18.8784 161.165 20.0063V31.9463H157.153V29.481H157.008C156.75 29.9858 156.39 30.4531 155.928 30.8828C155.467 31.3125 154.892 31.6562 154.204 31.9141C153.528 32.1719 152.722 32.3008 151.787 32.3008ZM152.851 29.207C153.71 29.207 154.451 29.0405 155.074 28.7075C155.708 28.3638 156.192 27.9126 156.525 27.354C156.868 26.7954 157.04 26.1831 157.04 25.5171V23.4546C156.901 23.562 156.675 23.6641 156.363 23.7607C156.063 23.8467 155.714 23.9272 155.316 24.0024C154.929 24.0669 154.537 24.1313 154.14 24.1958C153.753 24.2495 153.409 24.2925 153.109 24.3247C152.496 24.4106 151.938 24.5557 151.433 24.7598C150.939 24.9531 150.547 25.2217 150.257 25.5654C149.967 25.8984 149.822 26.3389 149.822 26.8867C149.822 27.3916 149.95 27.8159 150.208 28.1597C150.466 28.5034 150.821 28.7666 151.272 28.9492C151.723 29.1211 152.249 29.207 152.851 29.207ZM169.262 7.9375V31.9463H165.105V7.9375H169.262ZM177.344 7.9375V31.9463H173.186V7.9375H177.344Z" fill="black"/>
<path d="M184.147 8.34131C184.147 5.00478 183.597 1.94629 179.699 1.94629H6.95206C3.59727 1.94629 1.94727 5.22721 1.94727 8.34131" stroke="black" stroke-width="3.89262"/>
</svg>
