<svg width="99" height="44" viewBox="0 0 99 44" fill="none" xmlns="http://www.w3.org/2000/svg">
<path d="M1.94649 34.9463C1.94649 38.2828 2.8465 41.3413 6.39519 41.3413H91.1417C95.3465 41.3413 96.1465 38.0604 96.1465 34.9463" stroke="black" stroke-width="3.89262"/>
<path d="M11.0742 30.9463V13.1572H15.1025V16.1221H15.2637C15.5859 15.0908 16.1338 14.3013 16.9072 13.7534C17.6807 13.2056 18.5938 12.9316 19.6465 12.9316C19.8936 12.9316 20.1514 12.9424 20.4199 12.9639C20.6992 12.9746 20.9355 12.9961 21.1289 13.0283V16.8311C20.957 16.7881 20.6777 16.7451 20.291 16.7021C19.915 16.6592 19.5391 16.6377 19.1631 16.6377C18.4219 16.6377 17.7505 16.7988 17.1489 17.1211C16.5581 17.4434 16.0908 17.8999 15.7471 18.4907C15.4033 19.0708 15.2314 19.7637 15.2314 20.5693V30.9463H11.0742ZM28.2916 31.3008C27.1529 31.3008 26.127 31.0967 25.2139 30.6885C24.3116 30.2803 23.5972 29.6787 23.0709 28.8838C22.5445 28.0889 22.2813 27.106 22.2813 25.9351C22.2813 24.9253 22.4693 24.0928 22.8453 23.4375C23.2213 22.7822 23.7315 22.2612 24.3761 21.8745C25.0313 21.4771 25.7672 21.1763 26.5836 20.9722C27.4 20.7681 28.2432 20.623 29.1134 20.5371C30.1661 20.4189 31.0147 20.3169 31.6593 20.231C32.3038 20.145 32.7711 20.0054 33.0611 19.812C33.3619 19.6187 33.5123 19.3232 33.5123 18.9258V18.8291C33.5123 18.2598 33.3888 17.7764 33.1417 17.3789C32.9054 16.9707 32.5562 16.6592 32.0943 16.4443C31.6324 16.2295 31.0577 16.1221 30.3702 16.1221C29.6934 16.1221 29.0972 16.2295 28.5816 16.4443C28.0767 16.6484 27.6632 16.9277 27.3409 17.2822C27.0294 17.626 26.8092 18.0073 26.6803 18.4263L22.797 17.814C23.087 16.729 23.5865 15.8267 24.2955 15.1069C25.0152 14.3765 25.8907 13.8286 26.922 13.4634C27.9639 13.0874 29.1187 12.8994 30.3863 12.8994C31.2887 12.8994 32.1695 13.0068 33.0289 13.2217C33.899 13.4365 34.6832 13.7856 35.3814 14.269C36.0797 14.7417 36.6329 15.3701 37.0411 16.1543C37.46 16.9277 37.6695 17.8784 37.6695 19.0063V30.9463H33.6573V28.481H33.5123C33.2545 28.9858 32.8946 29.4531 32.4327 29.8828C31.9708 30.3125 31.3961 30.6562 30.7086 30.9141C30.0318 31.1719 29.2262 31.3008 28.2916 31.3008ZM29.3551 28.207C30.2144 28.207 30.9556 28.0405 31.5787 27.7075C32.2125 27.3638 32.6959 26.9126 33.0289 26.354C33.3726 25.7954 33.5445 25.1831 33.5445 24.5171V22.4546C33.4049 22.562 33.1793 22.6641 32.8678 22.7607C32.567 22.8467 32.2179 22.9272 31.8204 23.0024C31.4337 23.0669 31.0416 23.1313 30.6441 23.1958C30.2574 23.2495 29.9137 23.2925 29.6129 23.3247C29.0006 23.4106 28.442 23.5557 27.9371 23.7598C27.4429 23.9531 27.0509 24.2217 26.7608 24.5654C26.4708 24.8984 26.3258 25.3389 26.3258 25.8867C26.3258 26.3916 26.4547 26.8159 26.7125 27.1597C26.9703 27.5034 27.3248 27.7666 27.776 27.9492C28.2271 28.1211 28.7535 28.207 29.3551 28.207ZM41.6095 30.9463V13.1572H45.5412L45.6701 17.3467H45.3639C45.6325 16.3154 46.0353 15.4722 46.5724 14.8169C47.1203 14.1509 47.7541 13.6567 48.4738 13.3345C49.2043 13.0122 49.967 12.8511 50.7619 12.8511C52.0617 12.8511 53.1252 13.2539 53.9523 14.0596C54.7902 14.8652 55.3595 16.0146 55.6603 17.5078H55.1608C55.4079 16.498 55.8214 15.6494 56.4015 14.9619C56.9816 14.2637 57.6798 13.7373 58.4963 13.3828C59.3127 13.0283 60.1881 12.8511 61.1227 12.8511C62.1969 12.8511 63.1637 13.0874 64.0231 13.5601C64.8932 14.0327 65.5754 14.7256 66.0695 15.6387C66.5744 16.541 66.8268 17.6636 66.8268 19.0063V30.9463H62.6696V19.6348C62.6696 18.5176 62.3634 17.7012 61.7511 17.1855C61.1388 16.6592 60.403 16.396 59.5436 16.396C58.8669 16.396 58.2814 16.541 57.7873 16.8311C57.2931 17.1211 56.9118 17.5239 56.6432 18.0396C56.3854 18.5552 56.2565 19.1514 56.2565 19.8281V30.9463H52.196V19.4414C52.196 18.5176 51.9059 17.7817 51.3258 17.2339C50.7565 16.6753 50.026 16.396 49.1344 16.396C48.5221 16.396 47.9582 16.541 47.4425 16.8311C46.9377 17.1104 46.5295 17.5239 46.2179 18.0718C45.9171 18.6196 45.7668 19.2964 45.7668 20.1021V30.9463H41.6095ZM70.7668 37.6816V13.1572H74.8435V16.0093H75.0691C75.3162 15.5366 75.6492 15.064 76.0681 14.5913C76.4978 14.1079 77.0456 13.7051 77.7117 13.3828C78.3884 13.0605 79.2263 12.8994 80.2253 12.8994C81.6326 12.8994 82.8894 13.2593 83.9958 13.979C85.113 14.6987 85.9939 15.7407 86.6384 17.105C87.2937 18.4692 87.6213 20.1289 87.6213 22.084C87.6213 24.0068 87.3044 25.6558 86.6706 27.0308C86.0369 28.395 85.1614 29.4478 84.0442 30.189C82.927 30.9194 81.6487 31.2847 80.2092 31.2847C79.2424 31.2847 78.4206 31.1235 77.7439 30.8013C77.0779 30.479 76.53 30.0815 76.1003 29.6089C75.6706 29.1255 75.3323 28.6421 75.0852 28.1587H74.9241V37.6816H70.7668ZM79.1135 27.8364C80.0266 27.8364 80.8 27.5947 81.4338 27.1113C82.0676 26.6172 82.551 25.9351 82.884 25.0649C83.217 24.1948 83.3835 23.1958 83.3835 22.0679C83.3835 20.9292 83.217 19.9302 82.884 19.0708C82.5618 18.2114 82.0837 17.54 81.4499 17.0566C80.8162 16.5732 80.0373 16.3315 79.1135 16.3315C78.2004 16.3315 77.4216 16.5679 76.7771 17.0405C76.1433 17.5132 75.6545 18.1792 75.3108 19.0386C74.9778 19.8979 74.8113 20.9077 74.8113 22.0679C74.8113 23.2173 74.9778 24.2271 75.3108 25.0972C75.6545 25.9565 76.1487 26.6279 76.7932 27.1113C77.4377 27.5947 78.2112 27.8364 79.1135 27.8364Z" fill="black"/>
<path d="M94.1473 8.34131C94.1473 5.00478 93.5973 1.94629 89.6986 1.94629H6.95206C3.59727 1.94629 1.94727 5.22721 1.94727 8.34131" stroke="black" stroke-width="3.89262"/>
</svg>
