<svg width="155" height="44" viewBox="0 0 155 44" fill="none" xmlns="http://www.w3.org/2000/svg">
<path d="M1.94649 34.9463C1.94649 38.2828 2.8465 41.3413 6.39519 41.3413H147.142C151.346 41.3413 152.146 38.0604 152.146 34.9463" stroke="black" stroke-width="3.89262"/>
<path d="M16.2314 21.6016V31.9463H12.0742V14.1572H16.0542L16.1025 18.5723H15.6675C16.1724 17.0254 16.9136 15.8599 17.8911 15.0757C18.8794 14.2915 20.1094 13.8994 21.5811 13.8994C22.8057 13.8994 23.8799 14.1626 24.8037 14.689C25.7275 15.2153 26.4419 15.9834 26.9468 16.9932C27.4624 18.0029 27.7202 19.2329 27.7202 20.6831V31.9463H23.563V21.3276C23.563 20.103 23.2515 19.1523 22.6284 18.4756C22.0161 17.7988 21.1567 17.4604 20.0503 17.4604C19.3198 17.4604 18.6646 17.6216 18.0845 17.9438C17.5151 18.2554 17.064 18.7173 16.731 19.3296C16.3979 19.9419 16.2314 20.6992 16.2314 21.6016ZM39.4268 32.3169C37.6973 32.3169 36.1881 31.9355 34.899 31.1729C33.6207 30.3994 32.627 29.3252 31.918 27.9502C31.2198 26.5645 30.8707 24.9531 30.8707 23.1162C30.8707 21.2793 31.2198 19.668 31.918 18.2822C32.627 16.8965 33.6207 15.8223 34.899 15.0596C36.1881 14.2861 37.6973 13.8994 39.4268 13.8994C41.1671 13.8994 42.6763 14.2861 43.9547 15.0596C45.2437 15.8223 46.2374 16.8965 46.9356 18.2822C47.6446 19.668 47.9991 21.2793 47.9991 23.1162C47.9991 24.9531 47.6446 26.5645 46.9356 27.9502C46.2374 29.3252 45.2437 30.3994 43.9547 31.1729C42.6763 31.9355 41.1671 32.3169 39.4268 32.3169ZM39.4268 28.917C40.3829 28.917 41.1832 28.6646 41.8277 28.1597C42.4722 27.644 42.9556 26.9512 43.2779 26.0811C43.6109 25.2002 43.7774 24.2119 43.7774 23.1162C43.7774 21.999 43.6109 21.0054 43.2779 20.1353C42.9556 19.2544 42.4722 18.5615 41.8277 18.0566C41.1832 17.5518 40.3829 17.2993 39.4268 17.2993C38.4815 17.2993 37.6866 17.5518 37.0421 18.0566C36.3975 18.5615 35.9141 19.2544 35.5919 20.1353C35.2696 21.0054 35.1085 21.999 35.1085 23.1162C35.1085 24.2119 35.2696 25.2002 35.5919 26.0811C35.9141 26.9512 36.3975 27.644 37.0421 28.1597C37.6866 28.6646 38.4815 28.917 39.4268 28.917ZM54.4689 31.9463L49.1193 14.1572H53.5021L55.2746 21.0859C55.5539 22.2461 55.8493 23.5083 56.1608 24.8726C56.4831 26.2261 56.7892 27.7031 57.0793 29.3037H56.5475C56.8376 27.7461 57.1491 26.2852 57.4821 24.9209C57.8151 23.5566 58.132 22.2783 58.4328 21.0859L60.2375 14.1572H64.1852L65.9577 21.0859C66.2585 22.2568 66.57 23.5244 66.8922 24.8887C67.2253 26.2529 67.5368 27.7246 67.8268 29.3037H67.2951C67.5851 27.7354 67.8805 26.269 68.1813 24.9048C68.4928 23.5405 68.7936 22.2676 69.0837 21.0859L70.8561 14.1572H75.2712L69.9215 31.9463H65.6838L63.589 24.647C63.3742 23.9272 63.1647 23.1592 62.9606 22.3428C62.7672 21.5156 62.5739 20.6777 62.3805 19.8291C62.1872 18.9697 61.9938 18.1426 61.8004 17.3477H62.59C62.3966 18.1426 62.1979 18.9697 61.9938 19.8291C61.8004 20.6777 61.6017 21.5156 61.3976 22.3428C61.2043 23.1699 61.0055 23.938 60.8014 24.647L58.6906 31.9463H54.4689ZM81.8538 21.6016V31.9463H77.6965V7.9375H81.8215V18.5723H81.2898C81.7947 17.0254 82.5359 15.8599 83.5134 15.0757C84.5017 14.2915 85.7317 13.8994 87.2034 13.8994C88.428 13.8994 89.5022 14.1626 90.426 14.689C91.3498 15.2153 92.0696 15.9834 92.5852 16.9932C93.1008 18.0029 93.3586 19.2329 93.3586 20.6831V31.9463H89.1853V21.3276C89.1853 20.103 88.8738 19.1523 88.2507 18.4756C87.6384 17.7988 86.779 17.4604 85.6726 17.4604C84.9421 17.4604 84.2869 17.6216 83.7068 17.9438C83.1374 18.2554 82.6863 18.7173 82.3533 19.3296C82.0203 19.9419 81.8538 20.6992 81.8538 21.6016ZM105.146 32.3169C103.363 32.3169 101.821 31.9355 100.521 31.1729C99.2322 30.4102 98.2386 29.3413 97.5404 27.9663C96.8421 26.5913 96.493 24.98 96.493 23.1323C96.493 21.3169 96.8367 19.7163 97.5242 18.3306C98.2225 16.9341 99.2 15.8491 100.457 15.0757C101.724 14.2915 103.201 13.8994 104.888 13.8994C106.016 13.8994 107.074 14.0874 108.062 14.4634C109.061 14.8286 109.937 15.3872 110.689 16.1392C111.451 16.8804 112.048 17.8203 112.477 18.959C112.907 20.0869 113.122 21.4136 113.122 22.939V24.1958H98.3944V21.3599H111.043L109.11 22.1816C109.11 21.1719 108.949 20.291 108.626 19.5391C108.304 18.7871 107.831 18.207 107.208 17.7988C106.596 17.3799 105.833 17.1704 104.92 17.1704C104.018 17.1704 103.244 17.3799 102.6 17.7988C101.955 18.2178 101.461 18.7925 101.118 19.5229C100.784 20.2427 100.618 21.0537 100.618 21.9561V23.8735C100.618 24.98 100.806 25.9199 101.182 26.6934C101.558 27.4668 102.09 28.0522 102.777 28.4497C103.475 28.8472 104.286 29.0459 105.21 29.0459C105.833 29.0459 106.397 28.9546 106.902 28.772C107.407 28.5894 107.837 28.3262 108.191 27.9824C108.556 27.6279 108.83 27.1982 109.013 26.6934L112.848 27.3057C112.579 28.3047 112.091 29.1802 111.382 29.9321C110.683 30.6841 109.803 31.2695 108.739 31.6885C107.676 32.1074 106.478 32.3169 105.146 32.3169ZM116.192 31.9463V14.1572H120.22V17.1221H120.381C120.704 16.0908 121.251 15.3013 122.025 14.7534C122.798 14.2056 123.711 13.9316 124.764 13.9316C125.011 13.9316 125.269 13.9424 125.537 13.9639C125.817 13.9746 126.053 13.9961 126.246 14.0283V17.8311C126.075 17.7881 125.795 17.7451 125.409 17.7021C125.033 17.6592 124.657 17.6377 124.281 17.6377C123.539 17.6377 122.868 17.7988 122.267 18.1211C121.676 18.4434 121.208 18.8999 120.865 19.4907C120.521 20.0708 120.349 20.7637 120.349 21.5693V31.9463H116.192ZM135.907 32.3169C134.124 32.3169 132.582 31.9355 131.282 31.1729C129.993 30.4102 128.999 29.3413 128.301 27.9663C127.603 26.5913 127.254 24.98 127.254 23.1323C127.254 21.3169 127.598 19.7163 128.285 18.3306C128.983 16.9341 129.961 15.8491 131.218 15.0757C132.485 14.2915 133.962 13.8994 135.649 13.8994C136.777 13.8994 137.835 14.0874 138.823 14.4634C139.822 14.8286 140.698 15.3872 141.45 16.1392C142.212 16.8804 142.809 17.8203 143.238 18.959C143.668 20.0869 143.883 21.4136 143.883 22.939V24.1958H129.155V21.3599H141.804L139.871 22.1816C139.871 21.1719 139.709 20.291 139.387 19.5391C139.065 18.7871 138.592 18.207 137.969 17.7988C137.357 17.3799 136.594 17.1704 135.681 17.1704C134.779 17.1704 134.005 17.3799 133.361 17.7988C132.716 18.2178 132.222 18.7925 131.878 19.5229C131.545 20.2427 131.379 21.0537 131.379 21.9561V23.8735C131.379 24.98 131.567 25.9199 131.943 26.6934C132.319 27.4668 132.851 28.0522 133.538 28.4497C134.236 28.8472 135.047 29.0459 135.971 29.0459C136.594 29.0459 137.158 28.9546 137.663 28.772C138.168 28.5894 138.598 28.3262 138.952 27.9824C139.317 27.6279 139.591 27.1982 139.774 26.6934L143.609 27.3057C143.34 28.3047 142.852 29.1802 142.143 29.9321C141.444 30.6841 140.563 31.2695 139.5 31.6885C138.437 32.1074 137.239 32.3169 135.907 32.3169Z" fill="black"/>
<path d="M152.147 8.34131C152.147 5.00478 151.597 1.94629 147.699 1.94629H6.95206C3.59727 1.94629 1.94727 5.22721 1.94727 8.34131" stroke="black" stroke-width="3.89262"/>
</svg>
