<svg width="171" height="70" viewBox="0 0 171 70" fill="none" xmlns="http://www.w3.org/2000/svg">
<path d="M1.94649 60.9463C1.94649 64.2828 2.8465 67.3413 6.39519 67.3413H163.142C167.346 67.3413 168.146 64.0604 168.146 60.9463" stroke="black" stroke-width="3.89262"/>
<path d="M19.9375 32.3169C18.1543 32.3169 16.6128 31.9355 15.313 31.1729C14.0239 30.4102 13.0303 29.3413 12.332 27.9663C11.6338 26.5913 11.2847 24.98 11.2847 23.1323C11.2847 21.3169 11.6284 19.7163 12.3159 18.3306C13.0142 16.9341 13.9917 15.8491 15.2485 15.0757C16.5161 14.2915 17.9932 13.8994 19.6797 13.8994C20.8076 13.8994 21.8657 14.0874 22.854 14.4634C23.853 14.8286 24.7285 15.3872 25.4805 16.1392C26.2432 16.8804 26.8394 17.8203 27.269 18.959C27.6987 20.0869 27.9136 21.4136 27.9136 22.939V24.1958H13.186V21.3599H25.835L23.9014 22.1816C23.9014 21.1719 23.7402 20.291 23.418 19.5391C23.0957 18.7871 22.623 18.207 22 17.7988C21.3877 17.3799 20.625 17.1704 19.7119 17.1704C18.8096 17.1704 18.0361 17.3799 17.3916 17.7988C16.7471 18.2178 16.2529 18.7925 15.9092 19.5229C15.5762 20.2427 15.4097 21.0537 15.4097 21.9561V23.8735C15.4097 24.98 15.5977 25.9199 15.9736 26.6934C16.3496 27.4668 16.8813 28.0522 17.5688 28.4497C18.2671 28.8472 19.0781 29.0459 20.002 29.0459C20.625 29.0459 21.189 28.9546 21.6938 28.772C22.1987 28.5894 22.6284 28.3262 22.9829 27.9824C23.3481 27.6279 23.6221 27.1982 23.8047 26.6934L27.6396 27.3057C27.3711 28.3047 26.8823 29.1802 26.1733 29.9321C25.4751 30.6841 24.5942 31.2695 23.5308 31.6885C22.4673 32.1074 21.2695 32.3169 19.9375 32.3169ZM28.8082 31.9463L35.8013 21.3276L35.7852 24.3086L29.1627 14.1572H33.755L35.5758 17.1382C36.0914 18.0083 36.5587 18.8569 36.9776 19.6841C37.3966 20.5005 37.8155 21.3008 38.2345 22.085H36.5748C37.0152 21.3115 37.4342 20.5112 37.8316 19.6841C38.2398 18.8569 38.7071 18.0083 39.2335 17.1382L41.1026 14.1572H45.6143L38.9112 24.373L38.9273 21.4243L45.8883 31.9463H41.3121L39.1368 28.4658C38.6212 27.6064 38.1539 26.7739 37.7349 25.9683C37.3267 25.1519 36.9078 24.3623 36.4781 23.5996H38.1217C37.7027 24.3623 37.2945 25.1519 36.8971 25.9683C36.4996 26.7739 36.043 27.6064 35.5274 28.4658L33.336 31.9463H28.8082ZM52.5353 21.6016V31.9463H48.3781V7.9375H52.5031V18.5723H51.9713C52.4762 17.0254 53.2174 15.8599 54.195 15.0757C55.1833 14.2915 56.4132 13.8994 57.8849 13.8994C59.1095 13.8994 60.1838 14.1626 61.1076 14.689C62.0314 15.2153 62.7511 15.9834 63.2668 16.9932C63.7824 18.0029 64.0402 19.2329 64.0402 20.6831V31.9463H59.8669V21.3276C59.8669 20.103 59.5553 19.1523 58.9323 18.4756C58.32 17.7988 57.4606 17.4604 56.3542 17.4604C55.6237 17.4604 54.9684 17.6216 54.3883 17.9438C53.819 18.2554 53.3678 18.7173 53.0348 19.3296C52.7018 19.9419 52.5353 20.6992 52.5353 21.6016ZM67.9641 31.9463V14.1572H72.1213V31.9463H67.9641ZM70.0427 11.6113C69.366 11.6113 68.7912 11.3857 68.3186 10.9346C67.8459 10.4834 67.6096 9.94092 67.6096 9.30713C67.6096 8.6626 67.8459 8.12012 68.3186 7.67969C68.7912 7.23926 69.366 7.01904 70.0427 7.01904C70.7195 7.01904 71.2942 7.23926 71.7668 7.67969C72.2502 8.12012 72.4919 8.6626 72.4919 9.30713C72.4919 9.94092 72.2502 10.4834 71.7668 10.9346C71.2942 11.3857 70.7195 11.6113 70.0427 11.6113ZM85.4876 32.2847C84.5208 32.2847 83.699 32.1235 83.0223 31.8013C82.3455 31.479 81.7923 31.0815 81.3626 30.6089C80.9329 30.1255 80.5892 29.6367 80.3314 29.1426H80.1219V31.9463H76.0452V7.9375H80.2025V17.0093H80.3475C80.6053 16.5366 80.9437 16.064 81.3626 15.5913C81.7816 15.1079 82.324 14.7051 82.9901 14.3828C83.6668 14.0605 84.5047 13.8994 85.5037 13.8994C86.911 13.8994 88.1678 14.2593 89.2742 14.979C90.3914 15.6987 91.2723 16.7407 91.9168 18.105C92.5721 19.4692 92.8997 21.1289 92.8997 23.084C92.8997 25.0068 92.5828 26.6558 91.949 28.0308C91.3153 29.395 90.4398 30.4478 89.3226 31.189C88.2054 31.9194 86.9271 32.2847 85.4876 32.2847ZM84.3919 28.8364C85.305 28.8364 86.0784 28.5947 86.7122 28.1113C87.346 27.6172 87.8294 26.9351 88.1624 26.0649C88.4954 25.1948 88.6619 24.1958 88.6619 23.0679C88.6619 21.9292 88.4954 20.9302 88.1624 20.0708C87.8402 19.2114 87.3621 18.54 86.7283 18.0566C86.0946 17.5732 85.3157 17.3315 84.3919 17.3315C83.4788 17.3315 82.7 17.5679 82.0555 18.0405C81.4217 18.5132 80.9329 19.1792 80.5892 20.0386C80.2562 20.8979 80.0897 21.9077 80.0897 23.0679C80.0897 24.2173 80.2562 25.2271 80.5892 26.0972C80.9329 26.9565 81.4271 27.6279 82.0716 28.1113C82.7161 28.5947 83.4896 28.8364 84.3919 28.8364ZM96.0502 31.9463V14.1572H100.207V31.9463H96.0502ZM98.1288 11.6113C97.452 11.6113 96.8773 11.3857 96.4047 10.9346C95.932 10.4834 95.6957 9.94092 95.6957 9.30713C95.6957 8.6626 95.932 8.12012 96.4047 7.67969C96.8773 7.23926 97.452 7.01904 98.1288 7.01904C98.8056 7.01904 99.3803 7.23926 99.8529 7.67969C100.336 8.12012 100.578 8.6626 100.578 9.30713C100.578 9.94092 100.336 10.4834 99.8529 10.9346C99.3803 11.3857 98.8056 11.6113 98.1288 11.6113ZM112.671 14.1572V17.4282H102.375V14.1572H112.671ZM105.034 9.79053H109.191V26.9189C109.191 27.5527 109.325 28.0146 109.594 28.3047C109.873 28.5947 110.335 28.7397 110.979 28.7397C111.184 28.7397 111.447 28.7236 111.769 28.6914C112.091 28.6592 112.349 28.627 112.542 28.5947L113.058 31.8335C112.639 31.9409 112.193 32.0161 111.721 32.0591C111.248 32.1128 110.786 32.1396 110.335 32.1396C108.605 32.1396 107.29 31.7261 106.387 30.8989C105.485 30.0718 105.034 28.8794 105.034 27.3218V9.79053ZM115.5 31.9463V14.1572H119.657V31.9463H115.5ZM117.578 11.6113C116.901 11.6113 116.327 11.3857 115.854 10.9346C115.381 10.4834 115.145 9.94092 115.145 9.30713C115.145 8.6626 115.381 8.12012 115.854 7.67969C116.327 7.23926 116.901 7.01904 117.578 7.01904C118.255 7.01904 118.83 7.23926 119.302 7.67969C119.786 8.12012 120.027 8.6626 120.027 9.30713C120.027 9.94092 119.786 10.4834 119.302 10.9346C118.83 11.3857 118.255 11.6113 117.578 11.6113ZM131.347 32.3169C129.618 32.3169 128.109 31.9355 126.819 31.1729C125.541 30.3994 124.548 29.3252 123.839 27.9502C123.14 26.5645 122.791 24.9531 122.791 23.1162C122.791 21.2793 123.14 19.668 123.839 18.2822C124.548 16.8965 125.541 15.8223 126.819 15.0596C128.109 14.2861 129.618 13.8994 131.347 13.8994C133.088 13.8994 134.597 14.2861 135.875 15.0596C137.164 15.8223 138.158 16.8965 138.856 18.2822C139.565 19.668 139.92 21.2793 139.92 23.1162C139.92 24.9531 139.565 26.5645 138.856 27.9502C138.158 29.3252 137.164 30.3994 135.875 31.1729C134.597 31.9355 133.088 32.3169 131.347 32.3169ZM131.347 28.917C132.303 28.917 133.104 28.6646 133.748 28.1597C134.393 27.644 134.876 26.9512 135.198 26.0811C135.531 25.2002 135.698 24.2119 135.698 23.1162C135.698 21.999 135.531 21.0054 135.198 20.1353C134.876 19.2544 134.393 18.5615 133.748 18.0566C133.104 17.5518 132.303 17.2993 131.347 17.2993C130.402 17.2993 129.607 17.5518 128.963 18.0566C128.318 18.5615 127.835 19.2544 127.512 20.1353C127.19 21.0054 127.029 21.999 127.029 23.1162C127.029 24.2119 127.19 25.2002 127.512 26.0811C127.835 26.9512 128.318 27.644 128.963 28.1597C129.607 28.6646 130.402 28.917 131.347 28.917ZM147.227 21.6016V31.9463H143.07V14.1572H147.05L147.098 18.5723H146.663C147.168 17.0254 147.909 15.8599 148.887 15.0757C149.875 14.2915 151.105 13.8994 152.577 13.8994C153.801 13.8994 154.876 14.1626 155.8 14.689C156.723 15.2153 157.438 15.9834 157.943 16.9932C158.458 18.0029 158.716 19.2329 158.716 20.6831V31.9463H154.559V21.3276C154.559 20.103 154.247 19.1523 153.624 18.4756C153.012 17.7988 152.153 17.4604 151.046 17.4604C150.316 17.4604 149.66 17.6216 149.08 17.9438C148.511 18.2554 148.06 18.7173 147.727 19.3296C147.394 19.9419 147.227 20.6992 147.227 21.6016ZM12.0742 57.9463V40.1572H16.1025V43.1221H16.2637C16.5859 42.0908 17.1338 41.3013 17.9072 40.7534C18.6807 40.2056 19.5938 39.9316 20.6465 39.9316C20.8936 39.9316 21.1514 39.9424 21.4199 39.9639C21.6992 39.9746 21.9355 39.9961 22.1289 40.0283V43.8311C21.957 43.7881 21.6777 43.7451 21.291 43.7021C20.915 43.6592 20.5391 43.6377 20.1631 43.6377C19.4219 43.6377 18.7505 43.7988 18.1489 44.1211C17.5581 44.4434 17.0908 44.8999 16.7471 45.4907C16.4033 46.0708 16.2314 46.7637 16.2314 47.5693V57.9463H12.0742ZM31.7891 58.3169C30.0059 58.3169 28.4644 57.9355 27.1646 57.1729C25.8756 56.4102 24.8819 55.3413 24.1837 53.9663C23.4854 52.5913 23.1363 50.98 23.1363 49.1323C23.1363 47.3169 23.4801 45.7163 24.1676 44.3306C24.8658 42.9341 25.8433 41.8491 27.1002 41.0757C28.3678 40.2915 29.8448 39.8994 31.5313 39.8994C32.6593 39.8994 33.7174 40.0874 34.7056 40.4634C35.7047 40.8286 36.5802 41.3872 37.3321 42.1392C38.0948 42.8804 38.691 43.8203 39.1207 44.959C39.5504 46.0869 39.7652 47.4136 39.7652 48.939V50.1958H25.0377V47.3599H37.6866L35.753 48.1816C35.753 47.1719 35.5919 46.291 35.2696 45.5391C34.9473 44.7871 34.4747 44.207 33.8516 43.7988C33.2393 43.3799 32.4766 43.1704 31.5636 43.1704C30.6612 43.1704 29.8878 43.3799 29.2432 43.7988C28.5987 44.2178 28.1046 44.7925 27.7608 45.5229C27.4278 46.2427 27.2613 47.0537 27.2613 47.9561V49.8735C27.2613 50.98 27.4493 51.9199 27.8253 52.6934C28.2013 53.4668 28.733 54.0522 29.4205 54.4497C30.1187 54.8472 30.9298 55.0459 31.8536 55.0459C32.4766 55.0459 33.0406 54.9546 33.5455 54.772C34.0504 54.5894 34.4801 54.3262 34.8346 53.9824C35.1998 53.6279 35.4737 53.1982 35.6563 52.6934L39.4913 53.3057C39.2227 54.3047 38.734 55.1802 38.025 55.9321C37.3267 56.6841 36.4459 57.2695 35.3824 57.6885C34.3189 58.1074 33.1212 58.3169 31.7891 58.3169ZM49.6188 58.3169C48.2438 58.3169 47.0192 58.1182 45.945 57.7207C44.8708 57.3125 43.9953 56.7217 43.3185 55.9482C42.6418 55.1641 42.2121 54.2134 42.0295 53.0962L45.9772 52.5161C46.1813 53.397 46.5949 54.0576 47.2179 54.498C47.841 54.9277 48.6574 55.1426 49.6671 55.1426C50.6877 55.1426 51.4933 54.9385 52.0841 54.5303C52.6857 54.1221 52.9865 53.6172 52.9865 53.0156C52.9865 52.5 52.7824 52.0757 52.3742 51.7427C51.9767 51.4097 51.3805 51.1572 50.5856 50.9854L47.5563 50.3408C45.8698 49.9756 44.6076 49.374 43.7697 48.5361C42.9318 47.6982 42.5129 46.624 42.5129 45.3135C42.5129 44.2178 42.8136 43.2671 43.4152 42.4614C44.0168 41.645 44.8546 41.0166 45.9289 40.5762C47.0031 40.125 48.2546 39.8994 49.6833 39.8994C51.0475 39.8994 52.2238 40.1035 53.2121 40.5117C54.2111 40.9092 55.0114 41.4731 55.6129 42.2036C56.2253 42.9233 56.6281 43.7773 56.8214 44.7656L53.0671 45.3296C52.9059 44.6851 52.5514 44.1372 52.0036 43.686C51.4557 43.2349 50.7038 43.0093 49.7477 43.0093C48.8561 43.0093 48.1203 43.208 47.5402 43.6055C46.9601 43.9922 46.6701 44.4863 46.6701 45.0879C46.6701 45.6143 46.8688 46.0439 47.2663 46.377C47.6637 46.71 48.2975 46.9731 49.1676 47.1665L52.2292 47.811C53.9264 48.1763 55.1833 48.7563 55.9997 49.5513C56.8268 50.3462 57.2404 51.3721 57.2404 52.6289C57.2404 53.7676 56.9128 54.7612 56.2575 55.6099C55.6129 56.4585 54.716 57.1245 53.5666 57.6079C52.4279 58.0806 51.112 58.3169 49.6188 58.3169ZM68.1897 58.3169C66.4065 58.3169 64.865 57.9355 63.5652 57.1729C62.2761 56.4102 61.2825 55.3413 60.5842 53.9663C59.886 52.5913 59.5369 50.98 59.5369 49.1323C59.5369 47.3169 59.8806 45.7163 60.5681 44.3306C61.2663 42.9341 62.2439 41.8491 63.5007 41.0757C64.7683 40.2915 66.2453 39.8994 67.9319 39.8994C69.0598 39.8994 70.1179 40.0874 71.1062 40.4634C72.1052 40.8286 72.9807 41.3872 73.7327 42.1392C74.4953 42.8804 75.0915 43.8203 75.5212 44.959C75.9509 46.0869 76.1658 47.4136 76.1658 48.939V50.1958H61.4382V47.3599H74.0871L72.1536 48.1816C72.1536 47.1719 71.9924 46.291 71.6702 45.5391C71.3479 44.7871 70.8752 44.207 70.2522 43.7988C69.6399 43.3799 68.8772 43.1704 67.9641 43.1704C67.0618 43.1704 66.2883 43.3799 65.6438 43.7988C64.9993 44.2178 64.5051 44.7925 64.1614 45.5229C63.8284 46.2427 63.6619 47.0537 63.6619 47.9561V49.8735C63.6619 50.98 63.8498 51.9199 64.2258 52.6934C64.6018 53.4668 65.1335 54.0522 65.821 54.4497C66.5193 54.8472 67.3303 55.0459 68.2541 55.0459C68.8772 55.0459 69.4412 54.9546 69.946 54.772C70.4509 54.5894 70.8806 54.3262 71.2351 53.9824C71.6003 53.6279 71.8743 53.1982 72.0569 52.6934L75.8918 53.3057C75.6233 54.3047 75.1345 55.1802 74.4255 55.9321C73.7273 56.6841 72.8464 57.2695 71.7829 57.6885C70.7195 58.1074 69.5217 58.3169 68.1897 58.3169ZM79.2357 57.9463V40.1572H83.264V43.1221H83.4251C83.7474 42.0908 84.2952 41.3013 85.0687 40.7534C85.8421 40.2056 86.7552 39.9316 87.8079 39.9316C88.055 39.9316 88.3128 39.9424 88.5814 39.9639C88.8607 39.9746 89.097 39.9961 89.2904 40.0283V43.8311C89.1185 43.7881 88.8392 43.7451 88.4525 43.7021C88.0765 43.6592 87.7005 43.6377 87.3245 43.6377C86.5833 43.6377 85.9119 43.7988 85.3104 44.1211C84.7196 44.4434 84.2523 44.8999 83.9085 45.4907C83.5648 46.0708 83.3929 46.7637 83.3929 47.5693V57.9463H79.2357ZM97.2748 57.9463L90.6361 40.1572H95.0834L98.3383 49.7446C98.7035 50.8403 99.0258 51.9468 99.3051 53.064C99.5844 54.1812 99.869 55.3037 100.159 56.4316H99.1439C99.434 55.3037 99.7133 54.1865 99.9818 53.0801C100.261 51.9629 100.578 50.8511 100.933 49.7446L104.171 40.1572H108.57L101.915 57.9463H97.2748ZM118.182 58.3169C116.399 58.3169 114.857 57.9355 113.558 57.1729C112.269 56.4102 111.275 55.3413 110.577 53.9663C109.878 52.5913 109.529 50.98 109.529 49.1323C109.529 47.3169 109.873 45.7163 110.561 44.3306C111.259 42.9341 112.236 41.8491 113.493 41.0757C114.761 40.2915 116.238 39.8994 117.924 39.8994C119.052 39.8994 120.11 40.0874 121.099 40.4634C122.098 40.8286 122.973 41.3872 123.725 42.1392C124.488 42.8804 125.084 43.8203 125.514 44.959C125.943 46.0869 126.158 47.4136 126.158 48.939V50.1958H111.431V47.3599H124.08L122.146 48.1816C122.146 47.1719 121.985 46.291 121.663 45.5391C121.34 44.7871 120.868 44.207 120.245 43.7988C119.632 43.3799 118.87 43.1704 117.957 43.1704C117.054 43.1704 116.281 43.3799 115.636 43.7988C114.992 44.2178 114.498 44.7925 114.154 45.5229C113.821 46.2427 113.654 47.0537 113.654 47.9561V49.8735C113.654 50.98 113.842 51.9199 114.218 52.6934C114.594 53.4668 115.126 54.0522 115.813 54.4497C116.512 54.8472 117.323 55.0459 118.247 55.0459C118.87 55.0459 119.434 54.9546 119.938 54.772C120.443 54.5894 120.873 54.3262 121.228 53.9824C121.593 53.6279 121.867 53.1982 122.049 52.6934L125.884 53.3057C125.616 54.3047 125.127 55.1802 124.418 55.9321C123.72 56.6841 122.839 57.2695 121.775 57.6885C120.712 58.1074 119.514 58.3169 118.182 58.3169ZM136.012 58.3169C134.637 58.3169 133.412 58.1182 132.338 57.7207C131.264 57.3125 130.388 56.7217 129.711 55.9482C129.035 55.1641 128.605 54.2134 128.422 53.0962L132.37 52.5161C132.574 53.397 132.988 54.0576 133.611 54.498C134.234 54.9277 135.05 55.1426 136.06 55.1426C137.081 55.1426 137.886 54.9385 138.477 54.5303C139.079 54.1221 139.379 53.6172 139.379 53.0156C139.379 52.5 139.175 52.0757 138.767 51.7427C138.37 51.4097 137.773 51.1572 136.979 50.9854L133.949 50.3408C132.263 49.9756 131.001 49.374 130.163 48.5361C129.325 47.6982 128.906 46.624 128.906 45.3135C128.906 44.2178 129.207 43.2671 129.808 42.4614C130.41 41.645 131.248 41.0166 132.322 40.5762C133.396 40.125 134.648 39.8994 136.076 39.8994C137.44 39.8994 138.617 40.1035 139.605 40.5117C140.604 40.9092 141.404 41.4731 142.006 42.2036C142.618 42.9233 143.021 43.7773 143.214 44.7656L139.46 45.3296C139.299 44.6851 138.944 44.1372 138.397 43.686C137.849 43.2349 137.097 43.0093 136.141 43.0093C135.249 43.0093 134.513 43.208 133.933 43.6055C133.353 43.9922 133.063 44.4863 133.063 45.0879C133.063 45.6143 133.262 46.0439 133.659 46.377C134.057 46.71 134.69 46.9731 135.561 47.1665L138.622 47.811C140.319 48.1763 141.576 48.7563 142.393 49.5513C143.22 50.3462 143.633 51.3721 143.633 52.6289C143.633 53.7676 143.306 54.7612 142.65 55.6099C142.006 56.4585 141.109 57.1245 139.96 57.6079C138.821 58.0806 137.505 58.3169 136.012 58.3169Z" fill="black"/>
<path d="M168.147 8.34131C168.147 5.00478 167.597 1.94629 163.699 1.94629H6.95206C3.59727 1.94629 1.94727 5.22721 1.94727 8.34131" stroke="black" stroke-width="3.89262"/>
</svg>
