<svg width="203" height="44" viewBox="0 0 203 44" fill="none" xmlns="http://www.w3.org/2000/svg">
<path d="M1.94649 34.9463C1.94649 38.2828 2.8465 41.3413 6.39519 41.3413H195.142C199.346 41.3413 200.146 38.0604 200.146 34.9463" stroke="black" stroke-width="3.89262"/>
<path d="M18.6968 32.2847C17.2681 32.2847 15.9951 31.9194 14.8779 31.189C13.7607 30.4478 12.8799 29.395 12.2354 28.0308C11.6016 26.6558 11.2847 25.0068 11.2847 23.084C11.2847 21.1289 11.6069 19.4692 12.2515 18.105C12.9067 16.7407 13.793 15.6987 14.9102 14.979C16.0273 14.2593 17.2842 13.8994 18.6807 13.8994C19.6797 13.8994 20.5122 14.0605 21.1782 14.3828C21.855 14.7051 22.4082 15.1079 22.8379 15.5913C23.2676 16.064 23.6006 16.5366 23.8369 17.0093H23.9819V7.9375H28.1392V31.9463H24.0625V29.1426H23.853C23.606 29.6367 23.2622 30.1255 22.8218 30.6089C22.3921 31.0815 21.8389 31.479 21.1621 31.8013C20.4961 32.1235 19.6743 32.2847 18.6968 32.2847ZM19.7925 28.8364C20.7056 28.8364 21.479 28.5947 22.1128 28.1113C22.7573 27.6279 23.2461 26.9565 23.5791 26.0972C23.9229 25.2271 24.0947 24.2173 24.0947 23.0679C24.0947 21.9077 23.9282 20.8979 23.5952 20.0386C23.2622 19.1792 22.7734 18.5132 22.1289 18.0405C21.4844 17.5679 20.7056 17.3315 19.7925 17.3315C18.8794 17.3315 18.106 17.5732 17.4722 18.0566C16.8384 18.54 16.355 19.2114 16.022 20.0708C15.6997 20.9302 15.5386 21.9292 15.5386 23.0679C15.5386 24.1958 15.6997 25.1948 16.022 26.0649C16.355 26.9351 16.8384 27.6172 17.4722 28.1113C18.1167 28.5947 18.8901 28.8364 19.7925 28.8364ZM32.0792 31.9463V14.1572H36.2364V31.9463H32.0792ZM34.1578 11.6113C33.481 11.6113 32.9063 11.3857 32.4337 10.9346C31.961 10.4834 31.7247 9.94092 31.7247 9.30713C31.7247 8.6626 31.961 8.12012 32.4337 7.67969C32.9063 7.23926 33.481 7.01904 34.1578 7.01904C34.8346 7.01904 35.4093 7.23926 35.8819 7.67969C36.3653 8.12012 36.607 8.6626 36.607 9.30713C36.607 9.94092 36.3653 10.4834 35.8819 10.9346C35.4093 11.3857 34.8346 11.6113 34.1578 11.6113ZM44.3175 21.6016V31.9463H40.1603V14.1572H44.1403L44.1886 18.5723H43.7536C44.2585 17.0254 44.9997 15.8599 45.9772 15.0757C46.9655 14.2915 48.1955 13.8994 49.6671 13.8994C50.8918 13.8994 51.966 14.1626 52.8898 14.689C53.8136 15.2153 54.528 15.9834 55.0329 16.9932C55.5485 18.0029 55.8063 19.2329 55.8063 20.6831V31.9463H51.6491V21.3276C51.6491 20.103 51.3376 19.1523 50.7145 18.4756C50.1022 17.7988 49.2428 17.4604 48.1364 17.4604C47.4059 17.4604 46.7506 17.6216 46.1706 17.9438C45.6012 18.2554 45.1501 18.7173 44.8171 19.3296C44.484 19.9419 44.3175 20.6992 44.3175 21.6016ZM59.7463 31.9463V14.1572H63.9036V31.9463H59.7463ZM61.8249 11.6113C61.1482 11.6113 60.5735 11.3857 60.1008 10.9346C59.6282 10.4834 59.3918 9.94092 59.3918 9.30713C59.3918 8.6626 59.6282 8.12012 60.1008 7.67969C60.5735 7.23926 61.1482 7.01904 61.8249 7.01904C62.5017 7.01904 63.0764 7.23926 63.5491 7.67969C64.0325 8.12012 64.2742 8.6626 64.2742 9.30713C64.2742 9.94092 64.0325 10.4834 63.5491 10.9346C63.0764 11.3857 62.5017 11.6113 61.8249 11.6113ZM71.9847 21.6016V31.9463H67.8275V14.1572H71.8074L71.8558 18.5723H71.4207C71.9256 17.0254 72.6668 15.8599 73.6444 15.0757C74.6326 14.2915 75.8626 13.8994 77.3343 13.8994C78.5589 13.8994 79.6331 14.1626 80.557 14.689C81.4808 15.2153 82.1951 15.9834 82.7 16.9932C83.2156 18.0029 83.4735 19.2329 83.4735 20.6831V31.9463H79.3162V21.3276C79.3162 20.103 79.0047 19.1523 78.3817 18.4756C77.7694 17.7988 76.91 17.4604 75.8035 17.4604C75.0731 17.4604 74.4178 17.6216 73.8377 17.9438C73.2684 18.2554 72.8172 18.7173 72.4842 19.3296C72.1512 19.9419 71.9847 20.6992 71.9847 21.6016ZM95.1801 39.0361C93.7191 39.0361 92.4516 38.8428 91.3773 38.4561C90.3031 38.0801 89.4276 37.5537 88.7509 36.877C88.0849 36.2109 87.6176 35.4482 87.349 34.5889L91.0067 33.606C91.1786 33.9712 91.4311 34.3257 91.7641 34.6694C92.1078 35.0239 92.5536 35.3086 93.1015 35.5234C93.6601 35.749 94.3476 35.8618 95.164 35.8618C96.453 35.8618 97.4789 35.5503 98.2416 34.9272C99.0043 34.3042 99.3856 33.3428 99.3856 32.043V28.8203H99.1278C98.8808 29.3037 98.5424 29.771 98.1127 30.2222C97.6937 30.6733 97.1513 31.0439 96.4853 31.334C95.8192 31.624 95.0028 31.769 94.036 31.769C92.6288 31.769 91.3666 31.436 90.2494 30.77C89.1322 30.0933 88.246 29.105 87.5907 27.8052C86.9462 26.4946 86.6239 24.894 86.6239 23.0034C86.6239 21.0806 86.9516 19.4424 87.6068 18.0889C88.2621 16.7354 89.1483 15.6987 90.2655 14.979C91.3935 14.2593 92.6557 13.8994 94.0521 13.8994C95.0404 13.8994 95.8729 14.0605 96.5497 14.3828C97.2265 14.7051 97.7797 15.1079 98.2094 15.5913C98.6498 16.0747 98.9989 16.5581 99.2567 17.0415H99.434V14.1572H103.527V31.8979C103.527 33.5308 103.162 34.8735 102.431 35.9263C101.711 36.979 100.723 37.7578 99.4662 38.2627C98.2094 38.7783 96.7807 39.0361 95.1801 39.0361ZM95.1479 28.4497C96.0609 28.4497 96.8344 28.2295 97.4682 27.7891C98.1127 27.3486 98.6015 26.7202 98.9345 25.9038C99.2782 25.0767 99.4501 24.0938 99.4501 22.9551C99.4501 21.8271 99.2836 20.8442 98.9506 20.0063C98.6176 19.1577 98.1288 18.4971 97.4843 18.0244C96.8505 17.5518 96.0717 17.3154 95.1479 17.3154C94.2348 17.3154 93.456 17.5571 92.8114 18.0405C92.1776 18.5239 91.6942 19.1899 91.3612 20.0386C91.039 20.8765 90.8778 21.8486 90.8778 22.9551C90.8778 24.0723 91.0443 25.0444 91.3773 25.8716C91.7104 26.688 92.1937 27.3218 92.8275 27.7729C93.4613 28.2241 94.2348 28.4497 95.1479 28.4497ZM115.242 31.9463V14.1572H119.27V17.1221H119.431C119.753 16.0908 120.301 15.3013 121.075 14.7534C121.848 14.2056 122.761 13.9316 123.814 13.9316C124.061 13.9316 124.319 13.9424 124.587 13.9639C124.867 13.9746 125.103 13.9961 125.296 14.0283V17.8311C125.125 17.7881 124.845 17.7451 124.459 17.7021C124.083 17.6592 123.707 17.6377 123.331 17.6377C122.589 17.6377 121.918 17.7988 121.316 18.1211C120.726 18.4434 120.258 18.8999 119.915 19.4907C119.571 20.0708 119.399 20.7637 119.399 21.5693V31.9463H115.242ZM134.86 32.3169C133.131 32.3169 131.621 31.9355 130.332 31.1729C129.054 30.3994 128.06 29.3252 127.351 27.9502C126.653 26.5645 126.304 24.9531 126.304 23.1162C126.304 21.2793 126.653 19.668 127.351 18.2822C128.06 16.8965 129.054 15.8223 130.332 15.0596C131.621 14.2861 133.131 13.8994 134.86 13.8994C136.6 13.8994 138.11 14.2861 139.388 15.0596C140.677 15.8223 141.671 16.8965 142.369 18.2822C143.078 19.668 143.432 21.2793 143.432 23.1162C143.432 24.9531 143.078 26.5645 142.369 27.9502C141.671 29.3252 140.677 30.3994 139.388 31.1729C138.11 31.9355 136.6 32.3169 134.86 32.3169ZM134.86 28.917C135.816 28.917 136.616 28.6646 137.261 28.1597C137.905 27.644 138.389 26.9512 138.711 26.0811C139.044 25.2002 139.211 24.2119 139.211 23.1162C139.211 21.999 139.044 21.0054 138.711 20.1353C138.389 19.2544 137.905 18.5615 137.261 18.0566C136.616 17.5518 135.816 17.2993 134.86 17.2993C133.915 17.2993 133.12 17.5518 132.475 18.0566C131.831 18.5615 131.347 19.2544 131.025 20.1353C130.703 21.0054 130.542 21.999 130.542 23.1162C130.542 24.2119 130.703 25.2002 131.025 26.0811C131.347 26.9512 131.831 27.644 132.475 28.1597C133.12 28.6646 133.915 28.917 134.86 28.917ZM154.349 32.3169C152.62 32.3169 151.111 31.9355 149.822 31.1729C148.543 30.3994 147.55 29.3252 146.841 27.9502C146.142 26.5645 145.793 24.9531 145.793 23.1162C145.793 21.2793 146.142 19.668 146.841 18.2822C147.55 16.8965 148.543 15.8223 149.822 15.0596C151.111 14.2861 152.62 13.8994 154.349 13.8994C156.09 13.8994 157.599 14.2861 158.877 15.0596C160.166 15.8223 161.16 16.8965 161.858 18.2822C162.567 19.668 162.922 21.2793 162.922 23.1162C162.922 24.9531 162.567 26.5645 161.858 27.9502C161.16 29.3252 160.166 30.3994 158.877 31.1729C157.599 31.9355 156.09 32.3169 154.349 32.3169ZM154.349 28.917C155.305 28.917 156.106 28.6646 156.75 28.1597C157.395 27.644 157.878 26.9512 158.2 26.0811C158.533 25.2002 158.7 24.2119 158.7 23.1162C158.7 21.999 158.533 21.0054 158.2 20.1353C157.878 19.2544 157.395 18.5615 156.75 18.0566C156.106 17.5518 155.305 17.2993 154.349 17.2993C153.404 17.2993 152.609 17.5518 151.965 18.0566C151.32 18.5615 150.837 19.2544 150.514 20.1353C150.192 21.0054 150.031 21.999 150.031 23.1162C150.031 24.2119 150.192 25.2002 150.514 26.0811C150.837 26.9512 151.32 27.644 151.965 28.1597C152.609 28.6646 153.404 28.917 154.349 28.917ZM166.072 31.9463V14.1572H170.004L170.133 18.3467H169.826C170.095 17.3154 170.498 16.4722 171.035 15.8169C171.583 15.1509 172.217 14.6567 172.936 14.3345C173.667 14.0122 174.429 13.8511 175.224 13.8511C176.524 13.8511 177.588 14.2539 178.415 15.0596C179.253 15.8652 179.822 17.0146 180.123 18.5078H179.623C179.87 17.498 180.284 16.6494 180.864 15.9619C181.444 15.2637 182.142 14.7373 182.959 14.3828C183.775 14.0283 184.651 13.8511 185.585 13.8511C186.659 13.8511 187.626 14.0874 188.486 14.5601C189.356 15.0327 190.038 15.7256 190.532 16.6387C191.037 17.541 191.289 18.6636 191.289 20.0063V31.9463H187.132V20.6348C187.132 19.5176 186.826 18.7012 186.214 18.1855C185.601 17.6592 184.866 17.396 184.006 17.396C183.329 17.396 182.744 17.541 182.25 17.8311C181.756 18.1211 181.374 18.5239 181.106 19.0396C180.848 19.5552 180.719 20.1514 180.719 20.8281V31.9463H176.658V20.4414C176.658 19.5176 176.368 18.7817 175.788 18.2339C175.219 17.6753 174.489 17.396 173.597 17.396C172.985 17.396 172.421 17.541 171.905 17.8311C171.4 18.1104 170.992 18.5239 170.68 19.0718C170.38 19.6196 170.229 20.2964 170.229 21.1021V31.9463H166.072Z" fill="black"/>
<path d="M199.147 8.34131C199.147 5.00478 198.597 1.94629 194.699 1.94629H6.95206C3.59727 1.94629 1.94727 5.22721 1.94727 8.34131" stroke="black" stroke-width="3.89262"/>
</svg>
