<svg width="154" height="44" viewBox="0 0 154 44" fill="none" xmlns="http://www.w3.org/2000/svg">
<path d="M1.94649 34.9463C1.94649 38.2828 2.8465 41.3413 6.39519 41.3413H146.142C150.346 41.3413 151.146 38.0604 151.146 34.9463" stroke="black" stroke-width="3.89262"/>
<path d="M16.877 26.355V21.3438H17.4893L24.0151 14.1572H28.9297L20.9697 22.9229H20.1157L16.877 26.355ZM13.0742 31.9463V7.9375H17.2314V31.9463H13.0742ZM24.3374 31.9463L18.4399 23.8413L21.2598 20.9087L29.3486 31.9463H24.3374ZM38.3321 32.3169C36.6026 32.3169 35.0933 31.9355 33.8043 31.1729C32.526 30.3994 31.5323 29.3252 30.8233 27.9502C30.1251 26.5645 29.776 24.9531 29.776 23.1162C29.776 21.2793 30.1251 19.668 30.8233 18.2822C31.5323 16.8965 32.526 15.8223 33.8043 15.0596C35.0933 14.2861 36.6026 13.8994 38.3321 13.8994C40.0723 13.8994 41.5816 14.2861 42.8599 15.0596C44.149 15.8223 45.1427 16.8965 45.8409 18.2822C46.5499 19.668 46.9044 21.2793 46.9044 23.1162C46.9044 24.9531 46.5499 26.5645 45.8409 27.9502C45.1427 29.3252 44.149 30.3994 42.8599 31.1729C41.5816 31.9355 40.0723 32.3169 38.3321 32.3169ZM38.3321 28.917C39.2882 28.917 40.0885 28.6646 40.733 28.1597C41.3775 27.644 41.8609 26.9512 42.1832 26.0811C42.5162 25.2002 42.6827 24.2119 42.6827 23.1162C42.6827 21.999 42.5162 21.0054 42.1832 20.1353C41.8609 19.2544 41.3775 18.5615 40.733 18.0566C40.0885 17.5518 39.2882 17.2993 38.3321 17.2993C37.3868 17.2993 36.5919 17.5518 35.9473 18.0566C35.3028 18.5615 34.8194 19.2544 34.4971 20.1353C34.1749 21.0054 34.0138 21.999 34.0138 23.1162C34.0138 24.2119 34.1749 25.2002 34.4971 26.0811C34.8194 26.9512 35.3028 27.644 35.9473 28.1597C36.5919 28.6646 37.3868 28.917 38.3321 28.917ZM50.0548 31.9463V14.1572H54.2121V31.9463H50.0548ZM52.1335 11.6113C51.4567 11.6113 50.882 11.3857 50.4093 10.9346C49.9367 10.4834 49.7004 9.94092 49.7004 9.30713C49.7004 8.6626 49.9367 8.12012 50.4093 7.67969C50.882 7.23926 51.4567 7.01904 52.1335 7.01904C52.8102 7.01904 53.3849 7.23926 53.8576 7.67969C54.341 8.12012 54.5827 8.6626 54.5827 9.30713C54.5827 9.94092 54.341 10.4834 53.8576 10.9346C53.3849 11.3857 52.8102 11.6113 52.1335 11.6113ZM65.9271 38.6816V14.1572H70.0037V17.0093H70.2293C70.4764 16.5366 70.8094 16.064 71.2283 15.5913C71.658 15.1079 72.2059 14.7051 72.8719 14.3828C73.5487 14.0605 74.3865 13.8994 75.3856 13.8994C76.7928 13.8994 78.0496 14.2593 79.1561 14.979C80.2733 15.6987 81.1541 16.7407 81.7987 18.105C82.4539 19.4692 82.7816 21.1289 82.7816 23.084C82.7816 25.0068 82.4647 26.6558 81.8309 28.0308C81.1971 29.395 80.3216 30.4478 79.2044 31.189C78.0872 31.9194 76.8089 32.2847 75.3695 32.2847C74.4027 32.2847 73.5809 32.1235 72.9041 31.8013C72.2381 31.479 71.6903 31.0815 71.2606 30.6089C70.8309 30.1255 70.4925 29.6421 70.2454 29.1587H70.0843V38.6816H65.9271ZM74.2738 28.8364C75.1868 28.8364 75.9603 28.5947 76.5941 28.1113C77.2279 27.6172 77.7113 26.9351 78.0443 26.0649C78.3773 25.1948 78.5438 24.1958 78.5438 23.0679C78.5438 21.9292 78.3773 20.9302 78.0443 20.0708C77.722 19.2114 77.244 18.54 76.6102 18.0566C75.9764 17.5732 75.1976 17.3315 74.2738 17.3315C73.3607 17.3315 72.5819 17.5679 71.9373 18.0405C71.3035 18.5132 70.8148 19.1792 70.471 20.0386C70.138 20.8979 69.9715 21.9077 69.9715 23.0679C69.9715 24.2173 70.138 25.2271 70.471 26.0972C70.8148 26.9565 71.3089 27.6279 71.9534 28.1113C72.598 28.5947 73.3714 28.8364 74.2738 28.8364ZM93.6986 32.3169C91.9691 32.3169 90.4599 31.9355 89.1708 31.1729C87.8925 30.3994 86.8988 29.3252 86.1898 27.9502C85.4916 26.5645 85.1425 24.9531 85.1425 23.1162C85.1425 21.2793 85.4916 19.668 86.1898 18.2822C86.8988 16.8965 87.8925 15.8223 89.1708 15.0596C90.4599 14.2861 91.9691 13.8994 93.6986 13.8994C95.4389 13.8994 96.9481 14.2861 98.2265 15.0596C99.5155 15.8223 100.509 16.8965 101.207 18.2822C101.916 19.668 102.271 21.2793 102.271 23.1162C102.271 24.9531 101.916 26.5645 101.207 27.9502C100.509 29.3252 99.5155 30.3994 98.2265 31.1729C96.9481 31.9355 95.4389 32.3169 93.6986 32.3169ZM93.6986 28.917C94.6547 28.917 95.455 28.6646 96.0995 28.1597C96.744 27.644 97.2274 26.9512 97.5497 26.0811C97.8827 25.2002 98.0492 24.2119 98.0492 23.1162C98.0492 21.999 97.8827 21.0054 97.5497 20.1353C97.2274 19.2544 96.744 18.5615 96.0995 18.0566C95.455 17.5518 94.6547 17.2993 93.6986 17.2993C92.7533 17.2993 91.9584 17.5518 91.3139 18.0566C90.6693 18.5615 90.1859 19.2544 89.8637 20.1353C89.5414 21.0054 89.3803 21.999 89.3803 23.1162C89.3803 24.2119 89.5414 25.2002 89.8637 26.0811C90.1859 26.9512 90.6693 27.644 91.3139 28.1597C91.9584 28.6646 92.7533 28.917 93.6986 28.917ZM109.579 21.6016V31.9463H105.421V14.1572H109.401L109.45 18.5723H109.015C109.52 17.0254 110.261 15.8599 111.238 15.0757C112.227 14.2915 113.457 13.8994 114.928 13.8994C116.153 13.8994 117.227 14.1626 118.151 14.689C119.075 15.2153 119.789 15.9834 120.294 16.9932C120.81 18.0029 121.067 19.2329 121.067 20.6831V31.9463H116.91V21.3276C116.91 20.103 116.599 19.1523 115.976 18.4756C115.363 17.7988 114.504 17.4604 113.397 17.4604C112.667 17.4604 112.012 17.6216 111.432 17.9438C110.862 18.2554 110.411 18.7173 110.078 19.3296C109.745 19.9419 109.579 20.6992 109.579 21.6016ZM131.63 32.2847C130.201 32.2847 128.928 31.9194 127.811 31.189C126.694 30.4478 125.813 29.395 125.169 28.0308C124.535 26.6558 124.218 25.0068 124.218 23.084C124.218 21.1289 124.54 19.4692 125.185 18.105C125.84 16.7407 126.726 15.6987 127.843 14.979C128.961 14.2593 130.217 13.8994 131.614 13.8994C132.613 13.8994 133.445 14.0605 134.111 14.3828C134.788 14.7051 135.341 15.1079 135.771 15.5913C136.201 16.064 136.534 16.5366 136.77 17.0093H136.915V7.9375H141.072V31.9463H136.996V29.1426H136.786C136.539 29.6367 136.195 30.1255 135.755 30.6089C135.325 31.0815 134.772 31.479 134.095 31.8013C133.429 32.1235 132.607 32.2847 131.63 32.2847ZM132.726 28.8364C133.639 28.8364 134.412 28.5947 135.046 28.1113C135.69 27.6279 136.179 26.9565 136.512 26.0972C136.856 25.2271 137.028 24.2173 137.028 23.0679C137.028 21.9077 136.861 20.8979 136.528 20.0386C136.195 19.1792 135.707 18.5132 135.062 18.0405C134.418 17.5679 133.639 17.3315 132.726 17.3315C131.813 17.3315 131.039 17.5732 130.405 18.0566C129.772 18.54 129.288 19.2114 128.955 20.0708C128.633 20.9302 128.472 21.9292 128.472 23.0679C128.472 24.1958 128.633 25.1948 128.955 26.0649C129.288 26.9351 129.772 27.6172 130.405 28.1113C131.05 28.5947 131.823 28.8364 132.726 28.8364Z" fill="black"/>
<path d="M150.147 8.34131C150.147 5.00478 149.597 1.94629 145.699 1.94629H6.95206C3.59727 1.94629 1.94727 5.22721 1.94727 8.34131" stroke="black" stroke-width="3.89262"/>
</svg>
