<svg width="149" height="44" viewBox="0 0 149 44" fill="none" xmlns="http://www.w3.org/2000/svg">
<path d="M1.94649 34.9463C1.94649 38.2828 2.8465 41.3413 6.39519 41.3413H141.142C145.346 41.3413 146.146 38.0604 146.146 34.9463" stroke="black" stroke-width="3.89262"/>
<path d="M17.2314 6.9375V30.9463H13.0742V6.9375H17.2314ZM26.231 31.3008C25.0924 31.3008 24.0665 31.0967 23.1534 30.6885C22.2511 30.2803 21.5367 29.6787 21.0103 28.8838C20.484 28.0889 20.2208 27.106 20.2208 25.9351C20.2208 24.9253 20.4088 24.0928 20.7847 23.4375C21.1607 22.7822 21.671 22.2612 22.3155 21.8745C22.9708 21.4771 23.7066 21.1763 24.523 20.9722C25.3394 20.7681 26.1827 20.623 27.0528 20.5371C28.1055 20.4189 28.9542 20.3169 29.5987 20.231C30.2432 20.145 30.7105 20.0054 31.0006 19.812C31.3013 19.6187 31.4517 19.3232 31.4517 18.9258V18.8291C31.4517 18.2598 31.3282 17.7764 31.0811 17.3789C30.8448 16.9707 30.4957 16.6592 30.0338 16.4443C29.5719 16.2295 28.9971 16.1221 28.3096 16.1221C27.6329 16.1221 27.0367 16.2295 26.5211 16.4443C26.0162 16.6484 25.6026 16.9277 25.2804 17.2822C24.9688 17.626 24.7486 18.0073 24.6197 18.4263L20.7364 17.814C21.0264 16.729 21.526 15.8267 22.2349 15.1069C22.9547 14.3765 23.8302 13.8286 24.8614 13.4634C25.9034 13.0874 27.0582 12.8994 28.3258 12.8994C29.2281 12.8994 30.109 13.0068 30.9683 13.2217C31.8385 13.4365 32.6226 13.7856 33.3209 14.269C34.0191 14.7417 34.5723 15.3701 34.9805 16.1543C35.3995 16.9277 35.609 17.8784 35.609 19.0063V30.9463H31.5968V28.481H31.4517C31.1939 28.9858 30.8341 29.4531 30.3721 29.8828C29.9102 30.3125 29.3355 30.6562 28.648 30.9141C27.9713 31.1719 27.1656 31.3008 26.231 31.3008ZM27.2945 28.207C28.1539 28.207 28.8951 28.0405 29.5181 27.7075C30.1519 27.3638 30.6353 26.9126 30.9683 26.354C31.3121 25.7954 31.484 25.1831 31.484 24.5171V22.4546C31.3443 22.562 31.1187 22.6641 30.8072 22.7607C30.5064 22.8467 30.1573 22.9272 29.7598 23.0024C29.3731 23.0669 28.981 23.1313 28.5836 23.1958C28.1969 23.2495 27.8531 23.2925 27.5523 23.3247C26.94 23.4106 26.3814 23.5557 25.8765 23.7598C25.3824 23.9531 24.9903 24.2217 24.7003 24.5654C24.4102 24.8984 24.2652 25.3389 24.2652 25.8867C24.2652 26.3916 24.3941 26.8159 24.6519 27.1597C24.9097 27.5034 25.2642 27.7666 25.7154 27.9492C26.1666 28.1211 26.6929 28.207 27.2945 28.207ZM44.0285 30.9463L37.3898 13.1572H41.8371L45.092 22.7446C45.4572 23.8403 45.7795 24.9468 46.0588 26.064C46.338 27.1812 46.6227 28.3037 46.9128 29.4316H45.8976C46.1877 28.3037 46.467 27.1865 46.7355 26.0801C47.0148 24.9629 47.3317 23.8511 47.6862 22.7446L50.925 13.1572H55.3239L48.6691 30.9463H44.0285ZM62.406 31.3008C61.2673 31.3008 60.2414 31.0967 59.3284 30.6885C58.426 30.2803 57.7117 29.6787 57.1853 28.8838C56.6589 28.0889 56.3957 27.106 56.3957 25.9351C56.3957 24.9253 56.5837 24.0928 56.9597 23.4375C57.3357 22.7822 57.8459 22.2612 58.4905 21.8745C59.1457 21.4771 59.8816 21.1763 60.698 20.9722C61.5144 20.7681 62.3577 20.623 63.2278 20.5371C64.2805 20.4189 65.1291 20.3169 65.7737 20.231C66.4182 20.145 66.8855 20.0054 67.1755 19.812C67.4763 19.6187 67.6267 19.3232 67.6267 18.9258V18.8291C67.6267 18.2598 67.5032 17.7764 67.2561 17.3789C67.0198 16.9707 66.6706 16.6592 66.2087 16.4443C65.7468 16.2295 65.1721 16.1221 64.4846 16.1221C63.8078 16.1221 63.2117 16.2295 62.696 16.4443C62.1912 16.6484 61.7776 16.9277 61.4553 17.2822C61.1438 17.626 60.9236 18.0073 60.7947 18.4263L56.9114 17.814C57.2014 16.729 57.7009 15.8267 58.4099 15.1069C59.1296 14.3765 60.0051 13.8286 61.0364 13.4634C62.0784 13.0874 63.2331 12.8994 64.5007 12.8994C65.4031 12.8994 66.2839 13.0068 67.1433 13.2217C68.0134 13.4365 68.7976 13.7856 69.4958 14.269C70.1941 14.7417 70.7473 15.3701 71.1555 16.1543C71.5745 16.9277 71.7839 17.8784 71.7839 19.0063V30.9463H67.7717V28.481H67.6267C67.3689 28.9858 67.009 29.4531 66.5471 29.8828C66.0852 30.3125 65.5105 30.6562 64.823 30.9141C64.1462 31.1719 63.3406 31.3008 62.406 31.3008ZM63.4695 28.207C64.3288 28.207 65.0701 28.0405 65.6931 27.7075C66.3269 27.3638 66.8103 26.9126 67.1433 26.354C67.487 25.7954 67.6589 25.1831 67.6589 24.5171V22.4546C67.5193 22.562 67.2937 22.6641 66.9822 22.7607C66.6814 22.8467 66.3323 22.9272 65.9348 23.0024C65.5481 23.0669 65.156 23.1313 64.7585 23.1958C64.3718 23.2495 64.0281 23.2925 63.7273 23.3247C63.115 23.4106 62.5564 23.5557 62.0515 23.7598C61.5574 23.9531 61.1653 24.2217 60.8752 24.5654C60.5852 24.8984 60.4402 25.3389 60.4402 25.8867C60.4402 26.3916 60.5691 26.8159 60.8269 27.1597C61.0847 27.5034 61.4392 27.7666 61.8904 27.9492C62.3415 28.1211 62.8679 28.207 63.4695 28.207ZM84.1995 13.1572V16.4282H73.9031V13.1572H84.1995ZM76.5618 8.79053H80.7191V25.9189C80.7191 26.5527 80.8533 27.0146 81.1219 27.3047C81.4012 27.5947 81.8631 27.7397 82.5076 27.7397C82.7117 27.7397 82.9749 27.7236 83.2972 27.6914C83.6195 27.6592 83.8773 27.627 84.0706 27.5947L84.5863 30.8335C84.1673 30.9409 83.7215 31.0161 83.2488 31.0591C82.7762 31.1128 82.3143 31.1396 81.8631 31.1396C80.1336 31.1396 78.8177 30.7261 77.9154 29.8989C77.013 29.0718 76.5618 27.8794 76.5618 26.3218V8.79053ZM94.4721 31.3169C92.7426 31.3169 91.2333 30.9355 89.9442 30.1729C88.6659 29.3994 87.6723 28.3252 86.9633 26.9502C86.265 25.5645 85.9159 23.9531 85.9159 22.1162C85.9159 20.2793 86.265 18.668 86.9633 17.2822C87.6723 15.8965 88.6659 14.8223 89.9442 14.0596C91.2333 13.2861 92.7426 12.8994 94.4721 12.8994C96.2123 12.8994 97.7216 13.2861 98.9999 14.0596C100.289 14.8223 101.283 15.8965 101.981 17.2822C102.69 18.668 103.044 20.2793 103.044 22.1162C103.044 23.9531 102.69 25.5645 101.981 26.9502C101.283 28.3252 100.289 29.3994 98.9999 30.1729C97.7216 30.9355 96.2123 31.3169 94.4721 31.3169ZM94.4721 27.917C95.4281 27.917 96.2284 27.6646 96.8729 27.1597C97.5175 26.644 98.0009 25.9512 98.3231 25.0811C98.6562 24.2002 98.8227 23.2119 98.8227 22.1162C98.8227 20.999 98.6562 20.0054 98.3231 19.1353C98.0009 18.2544 97.5175 17.5615 96.8729 17.0566C96.2284 16.5518 95.4281 16.2993 94.4721 16.2993C93.5268 16.2993 92.7318 16.5518 92.0873 17.0566C91.4428 17.5615 90.9594 18.2544 90.6371 19.1353C90.3148 20.0054 90.1537 20.999 90.1537 22.1162C90.1537 23.2119 90.3148 24.2002 90.6371 25.0811C90.9594 25.9512 91.4428 26.644 92.0873 27.1597C92.7318 27.6646 93.5268 27.917 94.4721 27.917ZM106.195 30.9463V13.1572H110.223V16.1221H110.384C110.707 15.0908 111.254 14.3013 112.028 13.7534C112.801 13.2056 113.714 12.9316 114.767 12.9316C115.014 12.9316 115.272 12.9424 115.541 12.9639C115.82 12.9746 116.056 12.9961 116.249 13.0283V16.8311C116.078 16.7881 115.798 16.7451 115.412 16.7021C115.036 16.6592 114.66 16.6377 114.284 16.6377C113.542 16.6377 112.871 16.7988 112.27 17.1211C111.679 17.4434 111.211 17.8999 110.868 18.4907C110.524 19.0708 110.352 19.7637 110.352 20.5693V30.9463H106.195ZM119.11 37.4399L119.867 34.1689L120.705 34.2656C121.274 34.3945 121.779 34.416 122.22 34.3301C122.66 34.2441 123.031 34.0293 123.332 33.6855C123.632 33.3525 123.858 32.8691 124.008 32.2354L124.347 30.9785L117.595 13.1572H122.043L125.297 22.7446C125.673 23.8511 125.985 24.9575 126.232 26.064C126.49 27.1704 126.769 28.293 127.07 29.4316H125.958C126.248 28.293 126.538 27.1704 126.828 26.064C127.118 24.9468 127.451 23.8403 127.827 22.7446L131.163 13.1572H135.562L127.859 33.3633C127.494 34.3086 127.043 35.1089 126.506 35.7642C125.969 36.4302 125.319 36.9297 124.556 37.2627C123.804 37.6064 122.913 37.7783 121.881 37.7783C121.323 37.7783 120.796 37.7461 120.302 37.6816C119.819 37.6172 119.421 37.5366 119.11 37.4399Z" fill="black"/>
<path d="M144.147 8.34131C144.147 5.00478 143.597 1.94629 139.699 1.94629H6.95206C3.59727 1.94629 1.94727 5.22721 1.94727 8.34131" stroke="black" stroke-width="3.89262"/>
</svg>
