<svg width="681" height="681" viewBox="0 0 681 681" fill="none" xmlns="http://www.w3.org/2000/svg">
<ellipse cx="45.3244" cy="154.149" rx="45.3244" ry="46.0144" fill="#E7EBF2"/>
<ellipse cx="167.699" cy="634.985" rx="45.3244" ry="46.0144" fill="#E7EBF2"/>
<ellipse cx="103.113" cy="200.162" rx="28.3278" ry="28.759" fill="#E7EBF2"/>
<ellipse cx="156.369" cy="220.871" rx="28.3278" ry="28.759" fill="#E7EBF2"/>
<ellipse cx="213.027" cy="228.923" rx="28.3278" ry="28.759" fill="#E7EBF2"/>
<path d="M269.682 192.075C284.043 192.075 295.743 203.904 295.743 218.568C295.743 233.233 284.043 245.062 269.682 245.063C255.32 245.063 243.619 233.233 243.619 218.568C243.619 203.904 255.32 192.075 269.682 192.075Z" fill="black" stroke="#E7EBF2" stroke-width="4.53109"/>
<ellipse cx="304.806" cy="262.285" rx="28.3278" ry="28.759" fill="#E7EBF2"/>
<ellipse cx="359.193" cy="278.387" rx="28.3278" ry="28.759" fill="#E7EBF2"/>
<ellipse cx="415.851" cy="286.441" rx="28.3278" ry="28.759" fill="#E7EBF2"/>
<ellipse cx="472.502" cy="291.042" rx="28.3278" ry="28.759" fill="#E7EBF2"/>
<ellipse cx="528.029" cy="294.494" rx="28.3278" ry="28.759" fill="#E7EBF2"/>
<ellipse cx="580.152" cy="311.75" rx="28.3278" ry="28.759" fill="#E7EBF2"/>
<ellipse cx="627.744" cy="346.262" rx="28.3278" ry="28.759" fill="#E7EBF2"/>
<ellipse cx="652.672" cy="396.873" rx="28.3278" ry="28.759" fill="#E7EBF2"/>
<ellipse cx="627.744" cy="448.643" rx="28.3278" ry="28.759" fill="#E7EBF2"/>
<ellipse cx="580.152" cy="480.851" rx="28.3278" ry="28.759" fill="#E7EBF2"/>
<ellipse cx="526.896" cy="499.259" rx="28.3278" ry="28.759" fill="#E7EBF2"/>
<ellipse cx="470.238" cy="505.009" rx="28.3278" ry="28.759" fill="#E7EBF2"/>
<path d="M413.588 481.965C427.949 481.966 439.649 493.794 439.649 508.459C439.649 523.123 427.949 534.952 413.588 534.953C399.226 534.953 387.525 523.123 387.525 508.459C387.526 493.794 399.226 481.965 413.588 481.965Z" fill="black" stroke="#E7EBF2" stroke-width="4.53109"/>
<ellipse cx="389.791" cy="560.224" rx="28.3278" ry="28.759" fill="#E7EBF2"/>
<ellipse cx="347.863" cy="598.187" rx="28.3278" ry="28.759" fill="#E7EBF2"/>
<ellipse cx="296.875" cy="624.632" rx="28.3278" ry="28.759" fill="#E7EBF2"/>
<ellipse cx="241.353" cy="637.285" rx="28.3278" ry="28.759" fill="#E7EBF2"/>
<ellipse cx="356.927" cy="509.612" rx="28.3278" ry="28.759" fill="#E7EBF2"/>
<ellipse cx="300.275" cy="505.009" rx="28.3278" ry="28.759" fill="#E7EBF2"/>
<ellipse cx="243.619" cy="502.708" rx="28.3278" ry="28.759" fill="#E7EBF2"/>
<ellipse cx="188.095" cy="494.658" rx="28.3278" ry="28.759" fill="#E7EBF2"/>
<ellipse cx="131.443" cy="480.851" rx="28.3278" ry="28.759" fill="#E7EBF2"/>
<ellipse cx="80.4528" cy="452.095" rx="28.3278" ry="28.759" fill="#E7EBF2"/>
<ellipse cx="60.0563" cy="400.325" rx="28.3278" ry="28.759" fill="#E7EBF2"/>
<ellipse cx="97.4488" cy="357.763" rx="28.3278" ry="28.759" fill="#E7EBF2"/>
<ellipse cx="208.492" cy="335.906" rx="28.3278" ry="28.759" fill="#E7EBF2"/>
<ellipse cx="151.839" cy="340.505" rx="28.3278" ry="28.759" fill="#E7EBF2"/>
<ellipse cx="326.336" cy="210.515" rx="28.3278" ry="28.759" fill="#E7EBF2"/>
<ellipse cx="382.99" cy="216.269" rx="28.3278" ry="28.759" fill="#E7EBF2"/>
<ellipse cx="440.779" cy="204.764" rx="28.3278" ry="28.759" fill="#E7EBF2"/>
<ellipse cx="496.302" cy="189.81" rx="28.3278" ry="28.759" fill="#E7EBF2"/>
<ellipse cx="550.689" cy="170.253" rx="28.3278" ry="28.759" fill="#E7EBF2"/>
<ellipse cx="584.679" cy="123.091" rx="28.3278" ry="28.759" fill="#E7EBF2"/>
<ellipse cx="568.82" cy="67.8714" rx="28.3278" ry="28.759" fill="#E7EBF2"/>
<ellipse cx="520.095" cy="39.1126" rx="28.3278" ry="28.759" fill="#E7EBF2"/>
<ellipse cx="463.443" cy="29.909" rx="28.3278" ry="28.759" fill="#E7EBF2"/>
<ellipse cx="350.129" cy="40.2625" rx="28.3278" ry="28.759" fill="#E7EBF2"/>
<ellipse cx="406.785" cy="28.7591" rx="28.3278" ry="28.759" fill="#E7EBF2"/>
<ellipse cx="300.275" cy="65.5701" rx="28.3278" ry="28.759" fill="#E7EBF2"/>
<ellipse cx="262.88" cy="108.135" rx="28.3278" ry="28.759" fill="#E7EBF2"/>
<ellipse cx="251.55" cy="164.502" rx="28.3278" ry="28.759" fill="#E7EBF2"/>
<path d="M101.21 193.853V192.403H104.404V208.262H101.142V197.999C100.893 198.067 100.621 198.089 100.281 198.089H97.6305V195.393H99.9866C100.893 195.393 101.21 194.782 101.21 193.853Z" fill="black"/>
<path d="M150.044 228.969V226.454L156.07 221.47C157.452 220.337 158.313 219.386 158.313 218.094C158.313 216.531 157.294 215.715 155.844 215.715C154.326 215.715 153.284 216.758 153.284 218.479V218.729H149.999V218.275C149.999 215.285 152.242 212.974 155.867 212.974C159.582 212.974 161.598 214.99 161.598 217.958C161.598 220.292 160.33 221.719 158.336 223.328L154.779 226.228H161.689V228.969H150.044Z" fill="black"/>
<path d="M215.721 228.775C217.42 229.115 218.802 230.225 218.802 232.536C218.802 235.278 216.446 237.158 212.708 237.158C208.97 237.158 206.591 235.255 206.591 231.857H209.831C209.876 233.646 211.145 234.598 212.867 234.598C214.339 234.598 215.495 233.76 215.495 232.332C215.495 231.086 214.566 230.293 212.731 230.293H211.167V227.688H212.549C214.294 227.688 215.177 226.804 215.177 225.558C215.177 224.267 214.09 223.587 212.731 223.587C211.19 223.587 210.103 224.539 210.057 226.011H206.863C206.908 223.044 209.31 221.027 212.776 221.027C216.356 221.027 218.485 222.704 218.485 225.309C218.485 227.235 217.284 228.368 215.721 228.775Z" fill="black"/>
<path d="M327.011 207.808C330.206 207.808 332.358 210.006 332.358 213.245C332.358 216.893 329.639 218.751 326.354 218.751C322.684 218.751 320.419 216.417 320.283 213.517H323.523C323.681 214.945 324.678 216.077 326.377 216.077C327.759 216.077 329.073 215.126 329.073 213.245C329.073 211.569 328.008 210.391 326.354 210.391C325.471 210.391 324.247 210.731 323.681 212.045H320.532L320.985 202.756H331.407V205.497H323.953L323.772 208.964C324.565 208.239 325.607 207.808 327.011 207.808Z" fill="black"/>
<path d="M377.303 222.011C376.375 220.674 375.853 218.794 375.853 216.596C375.853 211.295 378.391 208.372 382.378 208.372C385.346 208.372 387.68 210.072 388.042 212.972H384.825C384.531 211.703 383.534 211.001 382.129 211.001C380.09 211.001 378.935 212.632 378.935 215.554V215.939C379.003 215.826 379.048 215.736 379.139 215.6C379.864 214.467 381.245 213.742 382.877 213.742C386.071 213.742 388.246 215.917 388.246 219.111C388.246 222.351 385.867 224.503 382.333 224.503C380.113 224.503 378.414 223.597 377.303 222.011ZM384.984 219.111C384.984 217.435 383.964 216.279 382.356 216.279C380.747 216.279 379.637 217.412 379.637 219.111C379.637 220.81 380.702 221.943 382.31 221.943C383.919 221.943 384.984 220.788 384.984 219.111Z" fill="black"/>
<path d="M434.18 199.768V197.004H445.803V199.111L438.825 212.863H435.291L442.223 199.768H434.18Z" fill="black"/>
<path d="M499.332 189.615C500.964 189.978 502.459 191.224 502.459 193.489C502.459 196.208 500.239 198.043 496.297 198.043C492.355 198.043 490.134 196.208 490.134 193.489C490.134 191.247 491.63 190.023 493.261 189.638C491.856 189.23 490.542 188.097 490.542 186.104C490.542 183.657 492.717 181.913 496.297 181.913C499.876 181.913 502.051 183.657 502.051 186.104C502.051 187.962 500.76 189.208 499.332 189.615ZM496.297 184.246C494.801 184.246 493.827 185.062 493.827 186.262C493.827 187.486 494.801 188.324 496.297 188.324C497.815 188.324 498.789 187.486 498.789 186.262C498.789 185.062 497.815 184.246 496.297 184.246ZM496.297 195.732C497.996 195.732 499.151 194.736 499.151 193.376C499.151 191.994 497.996 190.975 496.297 190.975C494.62 190.975 493.465 191.994 493.465 193.376C493.465 194.736 494.62 195.732 496.297 195.732Z" fill="black"/>
<path d="M550.45 178.489C547.187 178.489 545.08 176.812 544.718 173.889H547.935C548.207 175.136 549.181 175.86 550.631 175.86C552.738 175.86 553.871 174.161 553.871 171.307C553.871 171.193 553.871 171.058 553.848 170.899L553.508 171.397C552.738 172.462 551.469 173.051 549.974 173.051C546.757 173.051 544.582 170.99 544.582 167.75C544.582 164.601 546.961 162.358 550.495 162.358C552.625 162.358 554.279 163.196 555.389 164.669C556.408 166.028 556.997 167.954 556.997 170.242C556.997 175.498 554.664 178.489 550.45 178.489ZM550.472 170.536C552.081 170.536 553.214 169.404 553.214 167.705C553.214 166.028 552.126 164.918 550.518 164.918C548.909 164.918 547.844 166.051 547.844 167.705C547.844 169.381 548.864 170.536 550.472 170.536Z" fill="black"/>
<path d="M577.12 117.928V116.478H580.315V132.337H577.052V122.074C576.803 122.142 576.531 122.165 576.191 122.165H573.541V119.469H575.897C576.803 119.469 577.12 118.857 577.12 117.928ZM582.245 124.77V124.045C582.245 119.31 584.941 116.342 588.769 116.342C592.621 116.342 595.317 119.31 595.317 124.045V124.77C595.317 129.596 592.621 132.473 588.769 132.473C584.941 132.473 582.245 129.596 582.245 124.77ZM592.054 124.657V124.158C592.054 120.896 590.718 119.106 588.769 119.106C586.844 119.106 585.507 120.896 585.507 124.158V124.657C585.507 127.942 586.844 129.709 588.769 129.709C590.718 129.709 592.054 127.942 592.054 124.657Z" fill="black"/>
<path d="M564.651 61.5619V60.1119H567.846V75.9708H564.583V65.7078C564.334 65.7758 564.062 65.7985 563.723 65.7985H561.072V63.1025H563.428C564.334 63.1025 564.651 62.4908 564.651 61.5619ZM572.744 61.5619V60.1119H575.938V75.9708H572.676V65.7078C572.427 65.7758 572.155 65.7985 571.815 65.7985H569.164V63.1025H571.52C572.427 63.1025 572.744 62.4908 572.744 61.5619Z" fill="black"/>
<path d="M512.528 32.8021V31.3522H515.723V47.211H512.46V36.9481C512.211 37.016 511.939 37.0387 511.6 37.0387H508.949V34.3427H511.305C512.211 34.3427 512.528 33.731 512.528 32.8021ZM517.336 47.211V44.6962L523.362 39.712C524.744 38.5793 525.605 37.6277 525.605 36.3364C525.605 34.7732 524.585 33.9576 523.135 33.9576C521.617 33.9576 520.575 34.9997 520.575 36.7215V36.9707H517.29V36.5176C517.29 33.5271 519.533 31.2162 523.158 31.2162C526.874 31.2162 528.89 33.2326 528.89 36.2004C528.89 38.534 527.621 39.9613 525.627 41.5698L522.071 44.4697H528.98V47.211H517.336Z" fill="black"/>
<path d="M457.007 22.4491V20.9991H460.201V36.858H456.939V26.595C456.69 26.663 456.418 26.6857 456.078 26.6857H453.427V23.9897H455.784C456.69 23.9897 457.007 23.378 457.007 22.4491ZM470.831 28.6114C472.53 28.9512 473.912 30.0613 473.912 32.3722C473.912 35.1135 471.556 36.9939 467.818 36.9939C464.08 36.9939 461.701 35.0908 461.701 31.6925H464.941C464.986 33.4823 466.255 34.4338 467.976 34.4338C469.449 34.4338 470.604 33.5956 470.604 32.1683C470.604 30.9222 469.676 30.1293 467.84 30.1293H466.277V27.5239H467.659C469.404 27.5239 470.287 26.6404 470.287 25.3943C470.287 24.1029 469.2 23.4233 467.84 23.4233C466.3 23.4233 465.212 24.3748 465.167 25.8474H461.973C462.018 22.8796 464.419 20.8632 467.886 20.8632C471.465 20.8632 473.595 22.5397 473.595 25.1451C473.595 27.0708 472.394 28.2036 470.831 28.6114Z" fill="black"/>
<path d="M399.214 22.4491V20.9991H402.408V36.858H399.146V26.595C398.897 26.663 398.625 26.6857 398.285 26.6857H395.634V23.9897H397.991C398.897 23.9897 399.214 23.378 399.214 22.4491ZM403.863 33.4597V30.7637L410.863 20.9991H414.828V30.741H417.025V33.4597H414.828V36.858H411.633V33.4597H403.863ZM411.633 24.2389L406.989 30.741H411.633V24.2389Z" fill="black"/>
<path d="M343.692 33.9506V32.5006H346.887V48.3594H343.624V38.0965C343.375 38.1645 343.103 38.1871 342.764 38.1871H340.113V35.4911H342.469C343.375 35.4911 343.692 34.8794 343.692 33.9506ZM355.5 37.5528C358.695 37.5528 360.847 39.7504 360.847 42.9901C360.847 46.6376 358.128 48.4954 354.843 48.4954C351.173 48.4954 348.907 46.1619 348.772 43.262H352.011C352.17 44.6893 353.167 45.822 354.866 45.822C356.248 45.822 357.562 44.8705 357.562 42.9901C357.562 41.3136 356.497 40.1355 354.843 40.1355C353.96 40.1355 352.736 40.4753 352.17 41.7894H349.021L349.474 32.5006H359.895V35.2419H352.442L352.26 38.7082C353.053 37.9832 354.096 37.5528 355.5 37.5528Z" fill="black"/>
<path d="M292.706 59.2582V57.8082H295.901V73.6671H292.638V63.4041C292.389 63.4721 292.117 63.4948 291.777 63.4948H289.127V60.7988H291.483C292.389 60.7988 292.706 60.1871 292.706 59.2582ZM299.28 71.3109C298.352 69.9742 297.831 68.0938 297.831 65.8962C297.831 60.5949 300.368 57.6723 304.355 57.6723C307.323 57.6723 309.657 59.3715 310.019 62.2714H306.802C306.508 61.0027 305.511 60.3003 304.106 60.3003C302.067 60.3003 300.912 61.9315 300.912 64.8541V65.2392C300.98 65.1259 301.025 65.0353 301.116 64.8994C301.841 63.7666 303.223 63.0416 304.854 63.0416C308.048 63.0416 310.223 65.2166 310.223 68.411C310.223 71.6507 307.844 73.803 304.31 73.803C302.09 73.803 300.391 72.8968 299.28 71.3109ZM306.961 68.411C306.961 66.7345 305.941 65.5791 304.333 65.5791C302.724 65.5791 301.614 66.7118 301.614 68.411C301.614 70.1101 302.679 71.2429 304.287 71.2429C305.896 71.2429 306.961 70.0875 306.961 68.411Z" fill="black"/>
<path d="M256.444 101.823V100.373H259.639V116.232H256.376V105.969C256.127 106.037 255.855 106.059 255.516 106.059H252.865V103.363H255.221C256.127 103.363 256.444 102.752 256.444 101.823ZM260.98 103.137V100.373H272.602V102.48L265.624 116.232H262.09L269.022 103.137H260.98Z" fill="black"/>
<path d="M243.983 158.191V156.741H247.178V172.6H243.915V162.337C243.666 162.405 243.394 162.427 243.055 162.427H240.404V159.731H242.76C243.666 159.731 243.983 159.12 243.983 158.191ZM258.147 164.308C259.779 164.67 261.274 165.916 261.274 168.182C261.274 170.901 259.054 172.736 255.112 172.736C251.169 172.736 248.949 170.901 248.949 168.182C248.949 165.939 250.445 164.716 252.076 164.33C250.671 163.923 249.357 162.79 249.357 160.796C249.357 158.349 251.532 156.605 255.112 156.605C258.691 156.605 260.866 158.349 260.866 160.796C260.866 162.654 259.575 163.9 258.147 164.308ZM255.112 158.938C253.616 158.938 252.642 159.754 252.642 160.955C252.642 162.178 253.616 163.016 255.112 163.016C256.629 163.016 257.604 162.178 257.604 160.955C257.604 159.754 256.629 158.938 255.112 158.938ZM255.112 170.425C256.811 170.425 257.966 169.428 257.966 168.069C257.966 166.687 256.811 165.667 255.112 165.667C253.435 165.667 252.28 166.687 252.28 168.069C252.28 169.428 253.435 170.425 255.112 170.425Z" fill="black"/>
<path d="M297.235 255.974V254.524H300.43V270.383H297.167V260.12C296.918 260.188 296.646 260.211 296.307 260.211H293.656V257.515H296.012C296.918 257.515 297.235 256.903 297.235 255.974ZM308.114 270.519C304.852 270.519 302.745 268.842 302.382 265.92H305.6C305.871 267.166 306.846 267.891 308.296 267.891C310.402 267.891 311.535 266.192 311.535 263.337C311.535 263.224 311.535 263.088 311.513 262.929L311.173 263.428C310.402 264.492 309.134 265.081 307.639 265.081C304.421 265.081 302.247 263.02 302.247 259.78C302.247 256.631 304.625 254.388 308.16 254.388C310.289 254.388 311.943 255.226 313.053 256.699C314.073 258.058 314.662 259.984 314.662 262.272C314.662 267.528 312.328 270.519 308.114 270.519ZM308.137 262.567C309.745 262.567 310.878 261.434 310.878 259.735C310.878 258.058 309.791 256.948 308.182 256.948C306.574 256.948 305.509 258.081 305.509 259.735C305.509 261.411 306.528 262.567 308.137 262.567Z" fill="black"/>
<path d="M346.077 286.486V283.972L352.104 278.987C353.486 277.855 354.347 276.903 354.347 275.612C354.347 274.049 353.327 273.233 351.877 273.233C350.359 273.233 349.317 274.275 349.317 275.997V276.246H346.032V275.793C346.032 272.802 348.275 270.492 351.9 270.492C355.615 270.492 357.632 272.508 357.632 275.476C357.632 277.809 356.363 279.237 354.369 280.845L350.812 283.745H357.722V286.486H346.077ZM358.89 278.919V278.194C358.89 273.459 361.586 270.492 365.414 270.492C369.266 270.492 371.962 273.459 371.962 278.194V278.919C371.962 283.745 369.266 286.622 365.414 286.622C361.586 286.622 358.89 283.745 358.89 278.919ZM368.699 278.806V278.308C368.699 275.045 367.363 273.256 365.414 273.256C363.489 273.256 362.152 275.045 362.152 278.308V278.806C362.152 282.091 363.489 283.858 365.414 283.858C367.363 283.858 368.699 282.091 368.699 278.806Z" fill="black"/>
<path d="M404.993 294.538V292.023L411.02 287.039C412.402 285.906 413.263 284.955 413.263 283.664C413.263 282.1 412.243 281.285 410.793 281.285C409.275 281.285 408.233 282.327 408.233 284.049V284.298H404.948V283.845C404.948 280.854 407.191 278.543 410.816 278.543C414.531 278.543 416.548 280.56 416.548 283.528C416.548 285.861 415.279 287.288 413.285 288.897L409.728 291.797H416.638V294.538H404.993ZM420.773 280.129V278.679H423.968V294.538H420.705V284.275C420.456 284.343 420.184 284.366 419.845 284.366H417.194V281.67H419.55C420.456 281.67 420.773 281.058 420.773 280.129Z" fill="black"/>
<path d="M460.519 299.141V296.626L466.545 291.642C467.927 290.509 468.788 289.558 468.788 288.267C468.788 286.703 467.768 285.888 466.319 285.888C464.801 285.888 463.758 286.93 463.758 288.652V288.901H460.473V288.448C460.473 285.457 462.716 283.146 466.341 283.146C470.057 283.146 472.073 285.163 472.073 288.131C472.073 290.464 470.804 291.891 468.811 293.5L465.254 296.4H472.164V299.141H460.519ZM473.014 299.141V296.626L479.04 291.642C480.422 290.509 481.283 289.558 481.283 288.267C481.283 286.703 480.263 285.888 478.814 285.888C477.296 285.888 476.253 286.93 476.253 288.652V288.901H472.968V288.448C472.968 285.457 475.211 283.146 478.836 283.146C482.552 283.146 484.568 285.163 484.568 288.131C484.568 290.464 483.299 291.891 481.306 293.5L477.749 296.4H484.659V299.141H473.014Z" fill="black"/>
<path d="M516.044 302.59V300.076L522.07 295.091C523.452 293.959 524.313 293.007 524.313 291.716C524.313 290.153 523.294 289.337 521.844 289.337C520.326 289.337 519.284 290.379 519.284 292.101V292.35H515.999V291.897C515.999 288.906 518.242 286.596 521.867 286.596C525.582 286.596 527.598 288.612 527.598 291.58C527.598 293.913 526.33 295.341 524.336 296.949L520.779 299.849H527.689V302.59H516.044ZM537.556 294.344C539.255 294.684 540.637 295.794 540.637 298.105C540.637 300.846 538.281 302.726 534.543 302.726C530.805 302.726 528.426 300.823 528.426 297.425H531.666C531.711 299.215 532.98 300.166 534.701 300.166C536.174 300.166 537.329 299.328 537.329 297.901C537.329 296.655 536.401 295.862 534.565 295.862H533.002V293.256H534.384C536.129 293.256 537.012 292.373 537.012 291.127C537.012 289.835 535.925 289.156 534.565 289.156C533.025 289.156 531.937 290.107 531.892 291.58H528.698C528.743 288.612 531.145 286.596 534.611 286.596C538.19 286.596 540.32 288.272 540.32 290.878C540.32 292.803 539.119 293.936 537.556 294.344Z" fill="black"/>
<path d="M567.03 319.845V317.33L573.057 312.346C574.439 311.213 575.3 310.262 575.3 308.97C575.3 307.407 574.28 306.591 572.83 306.591C571.312 306.591 570.27 307.633 570.27 309.355V309.605H566.985V309.151C566.985 306.161 569.228 303.85 572.853 303.85C576.568 303.85 578.585 305.866 578.585 308.834C578.585 311.168 577.316 312.595 575.322 314.204L571.765 317.103H578.675V319.845H567.03ZM579.19 316.446V313.75L586.19 303.986H590.155V313.728H592.353V316.446H590.155V319.845H586.961V316.446H579.19ZM586.961 307.226L582.316 313.728H586.961V307.226Z" fill="black"/>
<path d="M614.616 354.358V351.844L620.643 346.86C622.025 345.727 622.886 344.775 622.886 343.484C622.886 341.921 621.866 341.105 620.416 341.105C618.898 341.105 617.856 342.147 617.856 343.869V344.118H614.571V343.665C614.571 340.675 616.814 338.364 620.439 338.364C624.154 338.364 626.171 340.38 626.171 343.348C626.171 345.681 624.902 347.109 622.908 348.717L619.351 351.617H626.261V354.358H614.616ZM634.112 343.552C637.306 343.552 639.459 345.749 639.459 348.989C639.459 352.637 636.74 354.494 633.455 354.494C629.785 354.494 627.519 352.161 627.383 349.261H630.623C630.782 350.688 631.778 351.821 633.478 351.821C634.86 351.821 636.174 350.87 636.174 348.989C636.174 347.313 635.109 346.135 633.455 346.135C632.571 346.135 631.348 346.474 630.782 347.788H627.632L628.086 338.5H638.507V341.241H631.053L630.872 344.707C631.665 343.982 632.707 343.552 634.112 343.552Z" fill="black"/>
<path d="M639.54 404.972V402.457L645.567 397.473C646.949 396.34 647.809 395.388 647.809 394.097C647.809 392.534 646.79 391.718 645.34 391.718C643.822 391.718 642.78 392.76 642.78 394.482V394.731H639.495V394.278C639.495 391.288 641.738 388.977 645.363 388.977C649.078 388.977 651.095 390.993 651.095 393.961C651.095 396.295 649.826 397.722 647.832 399.331L644.275 402.23H651.185V404.972H639.54ZM653.802 402.616C652.873 401.279 652.352 399.398 652.352 397.201C652.352 391.9 654.89 388.977 658.877 388.977C661.845 388.977 664.179 390.676 664.541 393.576H661.324C661.029 392.307 660.033 391.605 658.628 391.605C656.589 391.605 655.434 393.236 655.434 396.159V396.544C655.502 396.431 655.547 396.34 655.637 396.204C656.362 395.071 657.744 394.346 659.376 394.346C662.57 394.346 664.745 396.521 664.745 399.716C664.745 402.955 662.366 405.108 658.832 405.108C656.612 405.108 654.912 404.201 653.802 402.616ZM661.483 399.716C661.483 398.039 660.463 396.884 658.855 396.884C657.246 396.884 656.136 398.017 656.136 399.716C656.136 401.415 657.201 402.548 658.809 402.548C660.418 402.548 661.483 401.392 661.483 399.716Z" fill="black"/>
<path d="M615.753 456.737V454.223L621.779 449.238C623.161 448.106 624.022 447.154 624.022 445.863C624.022 444.3 623.003 443.484 621.553 443.484C620.035 443.484 618.993 444.526 618.993 446.248V446.497H615.708V446.044C615.708 443.053 617.951 440.743 621.576 440.743C625.291 440.743 627.307 442.759 627.307 445.727C627.307 448.06 626.039 449.488 624.045 451.096L620.488 453.996H627.398V456.737H615.753ZM627.954 443.643V440.879H639.576V442.986L632.599 456.737H629.064L635.997 443.643H627.954Z" fill="black"/>
<path d="M568.161 488.949V486.435L574.188 481.45C575.57 480.318 576.431 479.366 576.431 478.075C576.431 476.511 575.411 475.696 573.961 475.696C572.443 475.696 571.401 476.738 571.401 478.46V478.709H568.116V478.256C568.116 475.265 570.359 472.955 573.984 472.955C577.699 472.955 579.716 474.971 579.716 477.939C579.716 480.272 578.447 481.7 576.453 483.308L572.896 486.208H579.806V488.949H568.161ZM589.969 480.657C591.6 481.02 593.095 482.266 593.095 484.531C593.095 487.25 590.875 489.085 586.933 489.085C582.991 489.085 580.771 487.25 580.771 484.531C580.771 482.289 582.266 481.065 583.897 480.68C582.492 480.272 581.178 479.139 581.178 477.146C581.178 474.699 583.353 472.955 586.933 472.955C590.513 472.955 592.687 474.699 592.687 477.146C592.687 479.004 591.396 480.25 589.969 480.657ZM586.933 475.288C585.438 475.288 584.464 476.104 584.464 477.304C584.464 478.528 585.438 479.366 586.933 479.366C588.451 479.366 589.425 478.528 589.425 477.304C589.425 476.104 588.451 475.288 586.933 475.288ZM586.933 486.774C588.632 486.774 589.788 485.778 589.788 484.418C589.788 483.036 588.632 482.017 586.933 482.017C585.256 482.017 584.101 483.036 584.101 484.418C584.101 485.778 585.256 486.774 586.933 486.774Z" fill="black"/>
<path d="M514.905 507.352V504.837L520.932 499.853C522.314 498.72 523.175 497.769 523.175 496.477C523.175 494.914 522.155 494.099 520.705 494.099C519.187 494.099 518.145 495.141 518.145 496.863V497.112H514.86V496.659C514.86 493.668 517.103 491.357 520.728 491.357C524.443 491.357 526.46 493.374 526.46 496.342C526.46 498.675 525.191 500.102 523.197 501.711L519.64 504.611H526.55V507.352H514.905ZM533.472 507.488C530.21 507.488 528.103 505.812 527.74 502.889H530.957C531.229 504.135 532.203 504.86 533.653 504.86C535.76 504.86 536.893 503.161 536.893 500.306C536.893 500.193 536.893 500.057 536.87 499.898L536.531 500.397C535.76 501.462 534.492 502.051 532.996 502.051C529.779 502.051 527.604 499.989 527.604 496.749C527.604 493.6 529.983 491.357 533.517 491.357C535.647 491.357 537.301 492.196 538.411 493.668C539.431 495.028 540.02 496.953 540.02 499.241C540.02 504.498 537.686 507.488 533.472 507.488ZM533.495 499.536C535.103 499.536 536.236 498.403 536.236 496.704C536.236 495.028 535.149 493.917 533.54 493.917C531.932 493.917 530.867 495.05 530.867 496.704C530.867 498.381 531.886 499.536 533.495 499.536Z" fill="black"/>
<path d="M466.135 506.009C467.834 506.349 469.216 507.459 469.216 509.77C469.216 512.511 466.86 514.392 463.122 514.392C459.384 514.392 457.005 512.489 457.005 509.09H460.245C460.29 510.88 461.559 511.832 463.281 511.832C464.753 511.832 465.909 510.994 465.909 509.566C465.909 508.32 464.98 507.527 463.145 507.527H461.581V504.922H462.963C464.708 504.922 465.591 504.038 465.591 502.792C465.591 501.501 464.504 500.821 463.145 500.821C461.604 500.821 460.517 501.773 460.471 503.245H457.277C457.322 500.278 459.724 498.261 463.19 498.261C466.77 498.261 468.899 499.938 468.899 502.543C468.899 504.469 467.698 505.602 466.135 506.009ZM470.528 506.689V505.964C470.528 501.229 473.224 498.261 477.053 498.261C480.904 498.261 483.6 501.229 483.6 505.964V506.689C483.6 511.515 480.904 514.392 477.053 514.392C473.224 514.392 470.528 511.515 470.528 506.689ZM480.338 506.576V506.077C480.338 502.815 479.001 501.025 477.053 501.025C475.127 501.025 473.79 502.815 473.79 506.077V506.576C473.79 509.861 475.127 511.628 477.053 511.628C479.001 511.628 480.338 509.861 480.338 506.576Z" fill="black"/>
<path d="M352.825 509.461C354.524 509.801 355.906 510.911 355.906 513.222C355.906 515.964 353.55 517.844 349.811 517.844C346.073 517.844 343.695 515.941 343.695 512.543H346.934C346.98 514.332 348.248 515.284 349.97 515.284C351.443 515.284 352.598 514.446 352.598 513.018C352.598 511.772 351.669 510.979 349.834 510.979H348.271V508.374H349.653C351.397 508.374 352.281 507.49 352.281 506.244C352.281 504.953 351.193 504.273 349.834 504.273C348.294 504.273 347.206 505.225 347.161 506.698H343.966C344.012 503.73 346.413 501.713 349.879 501.713C353.459 501.713 355.589 503.39 355.589 505.995C355.589 507.921 354.388 509.054 352.825 509.461ZM356.9 517.708V515.193L362.927 510.209C364.309 509.076 365.169 508.125 365.169 506.833C365.169 505.27 364.15 504.455 362.7 504.455C361.182 504.455 360.14 505.497 360.14 507.219V507.468H356.855V507.015C356.855 504.024 359.098 501.713 362.723 501.713C366.438 501.713 368.454 503.73 368.454 506.698C368.454 509.031 367.186 510.458 365.192 512.067L361.635 514.967H368.545V517.708H356.9Z" fill="black"/>
<path d="M296.172 504.858C297.871 505.198 299.253 506.308 299.253 508.619C299.253 511.361 296.897 513.241 293.159 513.241C289.421 513.241 287.042 511.338 287.042 507.94H290.282C290.327 509.729 291.596 510.681 293.318 510.681C294.79 510.681 295.946 509.843 295.946 508.415C295.946 507.169 295.017 506.376 293.182 506.376H291.619V503.771H293.001C294.745 503.771 295.629 502.887 295.629 501.641C295.629 500.35 294.541 499.67 293.182 499.67C291.641 499.67 290.554 500.622 290.508 502.094H287.314C287.359 499.127 289.761 497.11 293.227 497.11C296.807 497.11 298.936 498.787 298.936 501.392C298.936 503.318 297.736 504.451 296.172 504.858ZM309.043 504.858C310.743 505.198 312.125 506.308 312.125 508.619C312.125 511.361 309.768 513.241 306.03 513.241C302.292 513.241 299.913 511.338 299.913 507.94H303.153C303.198 509.729 304.467 510.681 306.189 510.681C307.661 510.681 308.817 509.843 308.817 508.415C308.817 507.169 307.888 506.376 306.053 506.376H304.49V503.771H305.872C307.616 503.771 308.5 502.887 308.5 501.641C308.5 500.35 307.412 499.67 306.053 499.67C304.512 499.67 303.425 500.622 303.38 502.094H300.185C300.23 499.127 302.632 497.11 306.098 497.11C309.678 497.11 311.807 498.787 311.807 501.392C311.807 503.318 310.607 504.451 309.043 504.858Z" fill="black"/>
<path d="M238.381 502.557C240.08 502.897 241.462 504.007 241.462 506.318C241.462 509.059 239.106 510.94 235.368 510.94C231.63 510.94 229.251 509.037 229.251 505.638H232.491C232.536 507.428 233.805 508.38 235.527 508.38C236.999 508.38 238.155 507.541 238.155 506.114C238.155 504.868 237.226 504.075 235.391 504.075H233.828V501.47H235.21C236.954 501.47 237.838 500.586 237.838 499.34C237.838 498.049 236.75 497.369 235.391 497.369C233.85 497.369 232.763 498.321 232.717 499.793H229.523C229.568 496.825 231.97 494.809 235.436 494.809C239.016 494.809 241.145 496.486 241.145 499.091C241.145 501.017 239.945 502.149 238.381 502.557ZM242.298 507.405V504.709L249.299 494.945H253.263V504.687H255.461V507.405H253.263V510.804H250.069V507.405H242.298ZM250.069 498.185L245.425 504.687H250.069V498.185Z" fill="black"/>
<path d="M183.993 494.507C185.692 494.847 187.074 495.957 187.074 498.268C187.074 501.009 184.718 502.89 180.979 502.89C177.241 502.89 174.862 500.987 174.862 497.589H178.102C178.148 499.378 179.416 500.33 181.138 500.33C182.611 500.33 183.766 499.492 183.766 498.064C183.766 496.818 182.837 496.025 181.002 496.025H179.439V493.42H180.821C182.565 493.42 183.449 492.536 183.449 491.29C183.449 489.999 182.361 489.319 181.002 489.319C179.462 489.319 178.374 490.271 178.329 491.743H175.134C175.18 488.776 177.581 486.759 181.047 486.759C184.627 486.759 186.757 488.436 186.757 491.041C186.757 492.967 185.556 494.1 183.993 494.507ZM195.069 491.947C198.263 491.947 200.415 494.145 200.415 497.385C200.415 501.032 197.697 502.89 194.412 502.89C190.741 502.89 188.476 500.556 188.34 497.656H191.58C191.738 499.084 192.735 500.217 194.434 500.217C195.816 500.217 197.13 499.265 197.13 497.385C197.13 495.708 196.066 494.53 194.412 494.53C193.528 494.53 192.305 494.87 191.738 496.184H188.589L189.042 486.895H199.464V489.636H192.01L191.829 493.103C192.622 492.378 193.664 491.947 195.069 491.947Z" fill="black"/>
<path d="M127.34 480.703C129.039 481.043 130.421 482.153 130.421 484.463C130.421 487.205 128.065 489.085 124.327 489.085C120.589 489.085 118.21 487.182 118.21 483.784H121.45C121.495 485.574 122.764 486.525 124.486 486.525C125.958 486.525 127.114 485.687 127.114 484.26C127.114 483.014 126.185 482.221 124.35 482.221H122.787V479.615H124.169C125.913 479.615 126.797 478.732 126.797 477.486C126.797 476.194 125.709 475.515 124.35 475.515C122.809 475.515 121.722 476.466 121.676 477.939H118.482C118.527 474.971 120.929 472.955 124.395 472.955C127.975 472.955 130.104 474.631 130.104 477.236C130.104 479.162 128.904 480.295 127.34 480.703ZM133.183 486.593C132.254 485.256 131.733 483.376 131.733 481.178C131.733 475.877 134.27 472.955 138.258 472.955C141.226 472.955 143.559 474.654 143.922 477.554H140.705C140.41 476.285 139.413 475.583 138.009 475.583C135.97 475.583 134.814 477.214 134.814 480.136V480.521C134.882 480.408 134.927 480.318 135.018 480.182C135.743 479.049 137.125 478.324 138.756 478.324C141.951 478.324 144.126 480.499 144.126 483.693C144.126 486.933 141.747 489.085 138.212 489.085C135.992 489.085 134.293 488.179 133.183 486.593ZM140.863 483.693C140.863 482.017 139.844 480.861 138.235 480.861C136.627 480.861 135.516 481.994 135.516 483.693C135.516 485.392 136.581 486.525 138.19 486.525C139.798 486.525 140.863 485.37 140.863 483.693Z" fill="black"/>
<path d="M76.3462 451.94C78.0453 452.28 79.4273 453.39 79.4273 455.701C79.4273 458.443 77.0711 460.323 73.333 460.323C69.5948 460.323 67.216 458.42 67.216 455.022H70.4557C70.501 456.811 71.7698 457.763 73.4916 457.763C74.9642 457.763 76.1196 456.925 76.1196 455.497C76.1196 454.251 75.1907 453.458 73.3556 453.458H71.7924V450.853H73.1744C74.9189 450.853 75.8024 449.969 75.8024 448.723C75.8024 447.432 74.715 446.752 73.3556 446.752C71.8151 446.752 70.7276 447.704 70.6823 449.177H67.4879C67.5332 446.209 69.9347 444.192 73.4009 444.192C76.9805 444.192 79.1101 445.869 79.1101 448.474C79.1101 450.4 77.9094 451.533 76.3462 451.94ZM79.7958 447.092V444.328H91.4181V446.435L84.4402 460.187H80.9059L87.8385 447.092H79.7958Z" fill="black"/>
<path d="M55.9516 400.177C57.6508 400.517 59.0328 401.627 59.0328 403.938C59.0328 406.679 56.6766 408.559 52.9384 408.559C49.2003 408.559 46.8215 406.656 46.8215 403.258H50.0612C50.1065 405.048 51.3752 405.999 53.097 405.999C54.5696 405.999 55.7251 405.161 55.7251 403.734C55.7251 402.488 54.7962 401.695 52.9611 401.695H51.3979V399.089H52.7799C54.5243 399.089 55.4079 398.206 55.4079 396.96C55.4079 395.668 54.3204 394.989 52.9611 394.989C51.4205 394.989 50.3331 395.94 50.2878 397.413H47.0933C47.1386 394.445 49.5401 392.429 53.0064 392.429C56.586 392.429 58.7156 394.105 58.7156 396.711C58.7156 398.636 57.5148 399.769 55.9516 400.177ZM69.3838 400.132C71.015 400.494 72.5103 401.74 72.5103 404.006C72.5103 406.724 70.2901 408.559 66.348 408.559C62.406 408.559 60.1857 406.724 60.1857 404.006C60.1857 401.763 61.681 400.539 63.3122 400.154C61.9075 399.746 60.5935 398.614 60.5935 396.62C60.5935 394.173 62.7684 392.429 66.348 392.429C69.9276 392.429 72.1025 394.173 72.1025 396.62C72.1025 398.478 70.8111 399.724 69.3838 400.132ZM66.348 394.762C64.8527 394.762 63.8786 395.578 63.8786 396.778C63.8786 398.002 64.8527 398.84 66.348 398.84C67.8659 398.84 68.8401 398.002 68.8401 396.778C68.8401 395.578 67.8659 394.762 66.348 394.762ZM66.348 406.248C68.0472 406.248 69.2026 405.252 69.2026 403.892C69.2026 402.51 68.0472 401.491 66.348 401.491C64.6715 401.491 63.5161 402.51 63.5161 403.892C63.5161 405.252 64.6715 406.248 66.348 406.248Z" fill="black"/>
<path d="M93.3422 357.614C95.0414 357.954 96.4234 359.064 96.4234 361.375C96.4234 364.116 94.0672 365.997 90.3291 365.997C86.5909 365.997 84.2121 364.094 84.2121 360.695H87.4518C87.4971 362.485 88.7658 363.437 90.4877 363.437C91.9603 363.437 93.1157 362.599 93.1157 361.171C93.1157 359.925 92.1868 359.132 90.3517 359.132H88.7885V356.527H90.1705C91.915 356.527 92.7985 355.643 92.7985 354.397C92.7985 353.106 91.7111 352.426 90.3517 352.426C88.8112 352.426 87.7237 353.378 87.6784 354.85H84.484C84.5293 351.882 86.9308 349.866 90.397 349.866C93.9766 349.866 96.1062 351.543 96.1062 354.148C96.1062 356.074 94.9055 357.207 93.3422 357.614ZM103.489 365.997C100.227 365.997 98.1201 364.32 97.7576 361.398H100.975C101.247 362.644 102.221 363.369 103.671 363.369C105.778 363.369 106.91 361.67 106.91 358.815C106.91 358.702 106.91 358.566 106.888 358.407L106.548 358.906C105.778 359.97 104.509 360.56 103.014 360.56C99.7966 360.56 97.6217 358.498 97.6217 355.258C97.6217 352.109 100 349.866 103.535 349.866C105.664 349.866 107.318 350.704 108.428 352.177C109.448 353.536 110.037 355.462 110.037 357.75C110.037 363.006 107.703 365.997 103.489 365.997ZM103.512 358.045C105.121 358.045 106.253 356.912 106.253 355.213C106.253 353.536 105.166 352.426 103.557 352.426C101.949 352.426 100.884 353.559 100.884 355.213C100.884 356.889 101.904 358.045 103.512 358.045Z" fill="black"/>
<path d="M138.555 344.059V341.363L145.556 331.599H149.521V341.341H151.718V344.059H149.521V347.458H146.326V344.059H138.555ZM146.326 334.838L141.682 341.341H146.326V334.838ZM152.566 339.891V339.166C152.566 334.431 155.262 331.463 159.091 331.463C162.942 331.463 165.638 334.431 165.638 339.166V339.891C165.638 344.716 162.942 347.594 159.091 347.594C155.262 347.594 152.566 344.716 152.566 339.891ZM162.376 339.777V339.279C162.376 336.017 161.039 334.227 159.091 334.227C157.165 334.227 155.828 336.017 155.828 339.279V339.777C155.828 343.062 157.165 344.83 159.091 344.83C161.039 344.83 162.376 343.062 162.376 339.777Z" fill="black"/>
<path d="M195.212 340.605V337.909L202.212 328.145H206.177V337.887H208.375V340.605H206.177V344.003H202.983V340.605H195.212ZM202.983 331.384L198.338 337.887H202.983V331.384ZM211.372 329.595V328.145H214.566V344.003H211.304V333.741C211.054 333.809 210.783 333.831 210.443 333.831H207.792V331.135H210.148C211.054 331.135 211.372 330.523 211.372 329.595Z" fill="black"/>
<ellipse cx="266.285" cy="339.359" rx="28.3278" ry="28.759" fill="#E7EBF2"/>
<path d="M252.587 344.637V341.941L259.587 332.177H263.552V341.919H265.75V344.637H263.552V348.036H260.358V344.637H252.587ZM260.358 335.417L255.713 341.919H260.358V335.417ZM266.28 348.036V345.521L272.307 340.537C273.688 339.404 274.549 338.452 274.549 337.161C274.549 335.598 273.53 334.782 272.08 334.782C270.562 334.782 269.52 335.824 269.52 337.546V337.795H266.235V337.342C266.235 334.352 268.478 332.041 272.103 332.041C275.818 332.041 277.834 334.057 277.834 337.025C277.834 339.359 276.566 340.786 274.572 342.394L271.015 345.294H277.925V348.036H266.28Z" fill="black"/>
<ellipse cx="320.667" cy="353.161" rx="28.5419" ry="28.5432" fill="#E7EBF2"/>
<path d="M306.77 358.465V355.769L313.771 346.005H317.736V355.746H319.933V358.465H317.736V361.863H314.541V358.465H306.77ZM314.541 349.244L309.897 355.746H314.541V349.244ZM329.481 353.617C331.18 353.957 332.562 355.067 332.562 357.378C332.562 360.119 330.206 361.999 326.467 361.999C322.729 361.999 320.35 360.096 320.35 356.698H323.59C323.636 358.488 324.904 359.439 326.626 359.439C328.099 359.439 329.254 358.601 329.254 357.174C329.254 355.928 328.325 355.135 326.49 355.135H324.927V352.529H326.309C328.053 352.529 328.937 351.646 328.937 350.4C328.937 349.108 327.849 348.429 326.49 348.429C324.95 348.429 323.862 349.38 323.817 350.853H320.622C320.668 347.885 323.069 345.869 326.535 345.869C330.115 345.869 332.245 347.545 332.245 350.15C332.245 352.076 331.044 353.209 329.481 353.617Z" fill="black"/>
<ellipse cx="373.919" cy="372.717" rx="28.5419" ry="28.5432" fill="#E7EBF2"/>
<path d="M359.934 377.988V375.292L366.935 365.527H370.9V375.269H373.097V377.988H370.9V381.386H367.705V377.988H359.934ZM367.705 368.767L363.061 375.269H367.705V368.767ZM373.668 377.988V375.292L380.669 365.527H384.634V375.269H386.831V377.988H384.634V381.386H381.439V377.988H373.668ZM381.439 368.767L376.795 375.269H381.439V368.767Z" fill="black"/>
<ellipse cx="421.513" cy="402.627" rx="28.5419" ry="28.5432" fill="#E7EBF2"/>
<path d="M408.591 407.848V405.152L415.591 395.388H419.556V405.13H421.753V407.848H419.556V411.247H416.361V407.848H408.591ZM416.361 398.628L411.717 405.13H416.361V398.628ZM429.285 400.44C432.479 400.44 434.631 402.638 434.631 405.877C434.631 409.525 431.913 411.383 428.628 411.383C424.957 411.383 422.692 409.049 422.556 406.149H425.796C425.954 407.576 426.951 408.709 428.65 408.709C430.032 408.709 431.346 407.758 431.346 405.877C431.346 404.201 430.281 403.023 428.628 403.023C427.744 403.023 426.521 403.363 425.954 404.677H422.805L423.258 395.388H433.68V398.129H426.226L426.045 401.595C426.838 400.87 427.88 400.44 429.285 400.44Z" fill="black"/>
<ellipse cx="438.507" cy="457.844" rx="28.5419" ry="28.5432" fill="#E7EBF2"/>
<path d="M424.411 462.971V460.275L431.411 450.51H435.376V460.252H437.574V462.971H435.376V466.369H432.182V462.971H424.411ZM432.182 453.75L427.537 460.252H432.182V453.75ZM439.872 464.013C438.943 462.676 438.422 460.796 438.422 458.598C438.422 453.297 440.959 450.374 444.946 450.374C447.914 450.374 450.248 452.074 450.61 454.974H447.393C447.099 453.705 446.102 453.002 444.697 453.002C442.658 453.002 441.503 454.634 441.503 457.556V457.941C441.571 457.828 441.616 457.737 441.707 457.602C442.432 456.469 443.814 455.744 445.445 455.744C448.639 455.744 450.814 457.919 450.814 461.113C450.814 464.353 448.435 466.505 444.901 466.505C442.681 466.505 440.982 465.599 439.872 464.013ZM447.552 461.113C447.552 459.437 446.532 458.281 444.924 458.281C443.315 458.281 442.205 459.414 442.205 461.113C442.205 462.812 443.27 463.945 444.878 463.945C446.487 463.945 447.552 462.79 447.552 461.113Z" fill="black"/>
<path d="M375.378 564.912V562.216L382.378 552.452H386.343V562.194H388.541V564.912H386.343V568.311H383.149V564.912H375.378ZM383.149 555.692L378.504 562.194H383.149V555.692ZM398.428 560.019C400.059 560.381 401.554 561.627 401.554 563.893C401.554 566.611 399.334 568.447 395.392 568.447C391.45 568.447 389.23 566.611 389.23 563.893C389.23 561.65 390.725 560.427 392.356 560.041C390.952 559.634 389.638 558.501 389.638 556.507C389.638 554.06 391.812 552.316 395.392 552.316C398.972 552.316 401.147 554.06 401.147 556.507C401.147 558.365 399.855 559.611 398.428 560.019ZM395.392 554.649C393.897 554.649 392.923 555.465 392.923 556.666C392.923 557.889 393.897 558.727 395.392 558.727C396.91 558.727 397.884 557.889 397.884 556.666C397.884 555.465 396.91 554.649 395.392 554.649ZM395.392 566.136C397.091 566.136 398.247 565.139 398.247 563.78C398.247 562.398 397.091 561.378 395.392 561.378C393.716 561.378 392.56 562.398 392.56 563.78C392.56 565.139 393.716 566.136 395.392 566.136Z" fill="black"/>
<path d="M333.448 602.873V600.177L340.449 590.413H344.413V600.155H346.611V602.873H344.413V606.272H341.219V602.873H333.448ZM341.219 593.652L336.574 600.155H341.219V593.652ZM353.213 606.407C349.951 606.407 347.844 604.731 347.481 601.808H350.698C350.97 603.054 351.944 603.779 353.394 603.779C355.501 603.779 356.634 602.08 356.634 599.226C356.634 599.112 356.634 598.976 356.611 598.818L356.272 599.316C355.501 600.381 354.233 600.97 352.737 600.97C349.52 600.97 347.345 598.909 347.345 595.669C347.345 592.52 349.724 590.277 353.258 590.277C355.388 590.277 357.042 591.115 358.152 592.588C359.172 593.947 359.761 595.873 359.761 598.161C359.761 603.417 357.427 606.407 353.213 606.407ZM353.236 598.455C354.844 598.455 355.977 597.323 355.977 595.623C355.977 593.947 354.89 592.837 353.281 592.837C351.673 592.837 350.608 593.97 350.608 595.623C350.608 597.3 351.627 598.455 353.236 598.455Z" fill="black"/>
<path d="M289.621 621.923C292.815 621.923 294.968 624.12 294.968 627.36C294.968 631.008 292.249 632.865 288.964 632.865C285.294 632.865 283.028 630.532 282.892 627.632H286.132C286.29 629.059 287.287 630.192 288.986 630.192C290.368 630.192 291.682 629.241 291.682 627.36C291.682 625.684 290.618 624.506 288.964 624.506C288.08 624.506 286.857 624.845 286.29 626.159H283.141L283.594 616.871H294.016V619.612H286.562L286.381 623.078C287.174 622.353 288.216 621.923 289.621 621.923ZM296.074 625.163V624.438C296.074 619.703 298.77 616.735 302.599 616.735C306.45 616.735 309.146 619.703 309.146 624.438V625.163C309.146 629.988 306.45 632.865 302.599 632.865C298.77 632.865 296.074 629.988 296.074 625.163ZM305.884 625.049V624.551C305.884 621.289 304.547 619.499 302.599 619.499C300.673 619.499 299.336 621.289 299.336 624.551V625.049C299.336 628.334 300.673 630.102 302.599 630.102C304.547 630.102 305.884 628.334 305.884 625.049Z" fill="black"/>
<path d="M237.5 634.577C240.694 634.577 242.846 636.775 242.846 640.015C242.846 643.662 240.128 645.52 236.843 645.52C233.173 645.52 230.907 643.186 230.771 640.286H234.011C234.169 641.714 235.166 642.846 236.865 642.846C238.247 642.846 239.561 641.895 239.561 640.015C239.561 638.338 238.497 637.16 236.843 637.16C235.959 637.16 234.736 637.5 234.169 638.814H231.02L231.473 629.525H241.895V632.266H234.441L234.26 635.733C235.053 635.008 236.095 634.577 237.5 634.577ZM246.478 630.975V629.525H249.673V645.384H246.41V635.121C246.161 635.189 245.889 635.212 245.55 635.212H242.899V632.516H245.255C246.161 632.516 246.478 631.904 246.478 630.975Z" fill="black"/>
</svg>
