<svg width="326" height="157" viewBox="0 0 326 157" fill="none" xmlns="http://www.w3.org/2000/svg">
<path d="M147.649 12.6401C105.694 9.41281 12.1016 19.8997 12.1016 65.891C12.1016 123.983 118.603 90.0964 128.285 80.4144" stroke="black" stroke-width="24.2049"/>
<path d="M161.893 119.064C171.575 83.5635 190.938 12.5469 229.666 17.3947C263.553 21.6365 273.235 123.897 229.666 123.897C186.098 119.056 253.871 7.71328 292.599 12.554C326.486 12.554 318.74 97.7556 268.394 148.102" stroke="black" stroke-width="24.2049"/>
<path d="M140.726 29.1018C147.438 29.1018 152.99 31.2966 157.379 35.6858C162.026 40.0748 164.35 45.6256 164.35 52.3381C164.35 59.0509 162.026 64.6023 157.379 68.9915C152.99 73.3806 147.438 75.5754 140.726 75.5754C134.013 75.5754 128.333 73.3806 123.686 68.9915C119.296 64.6023 117.102 59.051 117.102 52.3381C117.102 45.6255 119.296 40.0749 123.686 35.6858C128.333 31.2966 134.013 29.1018 140.726 29.1018ZM140.102 44.1018C135.683 44.1018 132.102 47.6835 132.102 52.1018C132.102 56.5201 135.683 60.1018 140.102 60.1018C144.52 60.1018 148.102 56.5201 148.102 52.1018C148.102 47.6835 144.52 44.1018 140.102 44.1018Z" fill="black"/>
</svg>
