<svg width="507" height="180" viewBox="0 0 507 180" fill="none" xmlns="http://www.w3.org/2000/svg">
<path d="M107.982 116.239C126.789 114.529 168.711 102.903 168.711 70.0769C168.711 37.2504 128.499 39.3021 133.628 70.0769C138.757 100.852 169.532 87.7569 184.919 109.692C202.91 135.337 193.126 170.216 143.886 166.112C94.6466 162.009 70.3686 133.628 56.6909 119.95C45.6976 108.032 21.5109 67.6948 12.7109 1.69482" stroke="#E8ECF2" stroke-width="25.6457"/>
<path d="M215.693 32.7549C220.823 66.9492 229.029 143.544 220.823 176.371C231.081 137.047 258.778 62.5039 287.501 78.9172C323.405 99.4337 256.727 150.725 272.114 160.983C287.501 171.242 354.18 145.596 415.73 99.4337C437.333 83.2314 469.195 54.9002 497.211 28.3687" stroke="#E8ECF2" stroke-width="25.6457"/>
</svg>
